<svg xmlns="http://www.w3.org/2000/svg" xmlns:xlink="http://www.w3.org/1999/xlink" style="margin:auto;background:#f1f2f3;display:block;z-index:1;position:relative" width="1671" height="921" preserveAspectRatio="xMidYMid" viewBox="0 0 1671 921">
<g transform="translate(835.5,460.5) scale(1,1) translate(-835.5,-460.5)"><g transform="translate(1231.6047077039336,153.2496940037629) scale(100)" opacity="0.4">
  <path d="M4.7623500000000005 0 C4.7623500000000005 1.1529900000000002 5.134949616629962 1.63330636969058 4.5584546166299615 2.631825 S3.3796936303094207 3.5478210817128213 2.3811750000000007 4.124316081712822 S1.1529900000000004 5.263650000000001 3.2230560621659835e-16 5.263650000000001 S-1.3826563696905794 4.700811081712821 -2.3811749999999994 4.124316081712822 S-3.9819596166299602 3.6303436303094223 -4.558454616629961 2.6318250000000023 S-4.7623500000000005 1.1529900000000008 -4.7623500000000005 5.832196683919398e-16 S-5.134949616629962 -1.633306369690579 -4.558454616629962 -2.631824999999999 S-3.379693630309422 -3.5478210817128204 -2.3811750000000025 -4.124316081712821 S-1.152990000000001 -5.263650000000001 -9.66916818649795e-16 -5.263650000000001 S1.3826563696905767 -4.700811081712823 2.381174999999997 -4.1243160817128235 S3.9819596166299593 -3.6303436303094223 4.55845461662996 -2.6318250000000027 S4.7623500000000005 -1.1529900000000013 4.7623500000000005 -1.1664393367838796e-15" fill="#9fd5ff" stroke-width="0">
    <animateTransform attributeName="transform" type="rotate" dur="50s" repeatCount="indefinite" values="0;60"></animateTransform>
  </path>
</g><g transform="translate(1310.8256492447204,91.79963280451551) scale(100)" opacity="0.4">
  <path d="M5.7148200000000005 0 C5.7148200000000005 1.383588 6.161939539955954 1.9599676436286964 5.470145539955954 3.1581900000000003 S4.055632356371305 4.257385298055386 2.8574100000000007 4.949179298055386 S1.3835880000000005 6.316380000000001 3.8676672745991805e-16 6.316380000000001 S-1.659187643628695 5.640973298055386 -2.857409999999999 4.949179298055387 S-4.778351539955952 4.356412356371306 -5.470145539955952 3.158190000000003 S-5.7148200000000005 1.3835880000000007 -5.7148200000000005 6.998636020703277e-16 S-6.161939539955955 -1.9599676436286948 -5.470145539955955 -3.158189999999999 S-4.055632356371307 -4.257385298055384 -2.857410000000003 -4.949179298055385 S-1.3835880000000012 -6.316380000000001 -1.160300182379754e-15 -6.316380000000001 S1.6591876436286916 -5.640973298055387 2.8574099999999962 -4.949179298055388 S4.778351539955952 -4.356412356371306 5.470145539955952 -3.1581900000000034 S5.7148200000000005 -1.3835880000000014 5.7148200000000005 -1.3997272041406554e-15" fill="#80b1f1" stroke-width="0">
    <animateTransform attributeName="transform" type="rotate" dur="25s" repeatCount="indefinite" values="0;60"></animateTransform>
  </path>
</g><g transform="translate(1500.9559089426084,-55.680514073678296) scale(100)" opacity="0.4">
  <path d="M8.000748000000002 0 C8.000748000000002 1.9370232 8.626715355938336 2.743954701080174 7.658203755938335 4.421466 S5.677885298919827 5.960339417277541 4.000374000000002 6.928851017277541 S1.9370232000000005 8.842932000000001 5.414734184438852e-16 8.842932000000001 S-2.3228627010801732 7.897362617277541 -4.000373999999999 6.928851017277542 S-6.689692155938333 6.098977298919828 -7.658203755938334 4.421466000000003 S-8.000748000000002 1.937023200000001 -8.000748000000002 9.79809042898459e-16 S-8.626715355938336 -2.743954701080172 -7.658203755938336 -4.421465999999998 S-5.677885298919829 -5.960339417277538 -4.000374000000004 -6.928851017277539 S-1.9370232000000016 -8.842932000000001 -1.6244202553316555e-15 -8.842932000000001 S2.3228627010801692 -7.897362617277543 4.000373999999995 -6.928851017277545 S6.689692155938331 -6.098977298919829 7.658203755938332 -4.421466000000004 S8.000748000000002 -1.937023200000002 8.000748000000002 -1.959618085796918e-15" fill="#6f8cdf" stroke-width="0">
    <animateTransform attributeName="transform" type="rotate" dur="16.666666666666668s" repeatCount="indefinite" values="0;60"></animateTransform>
  </path>
</g></g>
</svg>