<svg width="342" height="569" viewBox="0 0 342 569" fill="none" xmlns="http://www.w3.org/2000/svg">
<path d="M156.234 559.305H153.339L151.962 548.142H156.234V559.305Z" fill="#9F616A"/>
<path d="M156.973 562.111H147.64V561.993C147.641 561.03 148.024 560.107 148.705 559.426C149.386 558.745 150.31 558.361 151.273 558.36H156.973V562.111Z" fill="#2F2E41"/>
<path d="M193.558 553.82L191.076 555.312L184.147 546.451L187.808 544.251L193.558 553.82Z" fill="#9F616A"/>
<path d="M187.636 560.652L187.575 560.55C187.08 559.724 186.933 558.736 187.166 557.801C187.399 556.867 187.993 556.063 188.818 555.566L193.704 552.63L195.635 555.845L187.636 560.652Z" fill="#2F2E41"/>
<path d="M156.987 557.001L156.937 557.001C155.529 556.997 154.122 556.916 152.723 556.758C152.19 556.706 151.611 556.649 150.914 556.591L150.89 556.587C150.415 556.446 150.401 551.986 150.603 536.719C150.706 528.899 150.823 520.036 150.684 514.392L150.683 514.337L150.724 514.3C153.242 512.093 156.246 510.513 159.491 509.69C162.736 508.866 166.129 508.821 169.395 509.56L169.446 509.571L169.472 509.616C172.317 514.429 176.612 521.362 180.765 528.066C190.3 543.458 193.027 547.984 192.728 548.326L192.692 548.353C192.041 548.679 191.552 548.93 191.137 549.143C189.492 549.995 187.802 550.757 186.074 551.426L185.997 551.458L185.942 551.396C176.267 540.795 168.216 528.953 163.236 518.006C162.655 521.743 161.948 526.623 161.202 531.78C159.056 546.607 157.606 556.371 157.022 556.966L156.987 557.001Z" fill="#2F2E41"/>
<path d="M341.958 170.96C341.958 331.559 173.589 408.404 173.589 408.404C173.589 408.404 3.49221 331.559 0.0384769 170.96C-1.99156 76.5632 76.5798 0 170.998 0C265.417 0 341.958 76.5414 341.958 170.96Z" fill="#6C63FF"/>
<path d="M177.201 558.043H173.651L171.963 544.354H177.201V558.043Z" fill="#FFB7B7"/>
<path d="M171.116 557.029H177.96V561.339H166.806C166.806 560.773 166.918 560.212 167.135 559.69C167.351 559.167 167.669 558.692 168.069 558.292C168.469 557.891 168.944 557.574 169.467 557.357C169.99 557.141 170.55 557.029 171.116 557.029Z" fill="#2F2E41"/>
<path d="M190.516 558.043H186.968L185.279 544.354H190.517L190.516 558.043Z" fill="#FFB7B7"/>
<path d="M184.432 557.029H191.277V561.339H180.123C180.123 560.196 180.577 559.1 181.385 558.292C182.193 557.483 183.289 557.029 184.432 557.029Z" fill="#2F2E41"/>
<path d="M177.032 551.147L173.126 550.961C172.793 550.945 172.479 550.802 172.248 550.562C172.017 550.322 171.887 550.002 171.885 549.669L171.612 510.139C171.611 509.951 171.65 509.765 171.727 509.594C171.804 509.423 171.918 509.271 172.059 509.147C172.201 509.024 172.367 508.933 172.547 508.88C172.727 508.827 172.916 508.813 173.102 508.84L188.732 511.109C189.041 511.152 189.324 511.305 189.529 511.541C189.734 511.776 189.847 512.077 189.848 512.389L191.858 549.017C191.859 549.189 191.826 549.36 191.761 549.519C191.697 549.678 191.601 549.823 191.48 549.945C191.359 550.067 191.215 550.164 191.056 550.23C190.897 550.296 190.727 550.33 190.555 550.33H186.343C186.032 550.331 185.732 550.221 185.495 550.019C185.259 549.817 185.103 549.537 185.056 549.23C185.056 549.23 181.875 521.755 181.438 521.771C180.999 521.779 178.388 550.001 178.388 550.001C178.349 550.317 178.196 550.608 177.958 550.819C177.72 551.03 177.413 551.148 177.094 551.149C177.074 551.149 177.053 551.148 177.032 551.147Z" fill="#2F2E41"/>
<path d="M230.576 417.902H116.603L102.788 362.642H244.391L230.576 417.902Z" fill="#3F3D56"/>
<path d="M226.69 512.405H120.487V567.75H226.69V512.405Z" fill="white"/>
<path d="M227.553 568.614H119.624V511.542H227.553V568.614ZM121.351 566.887H225.826V513.269H121.351V566.887Z" fill="#3F3D56"/>
<path d="M195.358 424.418H151.819L146.822 416.566H200.355L195.358 424.418Z" fill="#3F3D56"/>
<path d="M119.192 417.902H117.465V502.518H119.192V417.902Z" fill="#3F3D56"/>
<path d="M229.712 417.902H227.985V502.518H229.712V417.902Z" fill="#3F3D56"/>
<path d="M190.898 361.706L189.844 360.339C239.732 321.868 299.2 255.96 299.2 160.451C299.24 127 289.402 94.282 270.921 66.4001C252.439 38.5181 226.137 16.7136 195.312 3.72112L195.985 2.13086C227.123 15.2552 253.692 37.281 272.361 65.4458C291.03 93.6106 300.967 126.661 300.927 160.451C300.927 256.661 241.093 322.998 190.898 361.706Z" fill="#3F3D56"/>
<path d="M135.638 361.707L134.583 360.339C184.471 321.868 243.94 255.96 243.94 160.451C243.953 127.225 234.234 94.723 215.981 66.9594C197.729 39.1958 171.744 17.387 141.235 4.22681L141.92 2.6416C172.738 15.9353 198.987 37.9654 217.425 66.0107C235.862 94.0561 245.68 126.888 245.667 160.451C245.667 256.662 185.832 322.999 135.638 361.707Z" fill="#3F3D56"/>
<path d="M206.358 361.707C156.164 322.999 96.3296 256.662 96.3296 160.451C96.3159 126.888 106.134 94.0554 124.572 66.01C143.01 37.9646 169.259 15.9345 200.078 2.64111L200.763 4.22632C170.254 17.3863 144.268 39.195 126.015 66.9587C107.763 94.7224 98.0429 127.225 98.0564 160.451C98.0564 255.96 157.525 321.868 207.413 360.339L206.358 361.707Z" fill="#3F3D56"/>
<path d="M151.098 361.706C100.904 322.998 41.0695 256.662 41.0695 160.451C41.0131 126.527 51.0205 93.3493 69.8255 65.115C88.6305 36.8807 115.388 14.8589 146.712 1.83594L147.378 3.42957C116.368 16.3216 89.8797 38.1221 71.2636 66.0728C52.6475 94.0234 42.7406 126.868 42.7964 160.451C42.7964 255.96 102.265 321.868 152.153 360.339L151.098 361.706Z" fill="#3F3D56"/>
<path d="M171.861 0H170.134V362.642H171.861V0Z" fill="#3F3D56"/>
<path d="M151.543 499.858L119.877 531.523L121.098 532.744L152.764 501.079L151.543 499.858Z" fill="#3F3D56"/>
<path d="M166.936 499.331L119.865 548.837L121.116 550.027L168.188 500.52L166.936 499.331Z" fill="#3F3D56"/>
<path d="M236.619 499.928H107.104V515.47H236.619V499.928Z" fill="white"/>
<path d="M237.482 516.334H106.24V499.065H237.482V516.334ZM107.967 514.607H235.755V500.792H107.967V514.607Z" fill="#3F3D56"/>
<path d="M193.345 473.943C193.041 472.112 192.727 470.247 191.876 468.598C191.317 467.518 190.43 466.489 189.234 466.276C188.998 466.255 188.766 466.201 188.545 466.116C188.195 465.947 185.02 464.794 184.272 464.326C183.629 463.924 181.055 462.922 179.557 462.36C176.094 463.102 171.226 462.79 168.137 462.267C168.137 462.267 166.405 463.314 164.768 464.326C163.13 465.337 158.624 467.599 158.324 467.588C157.757 467.564 157.23 467.927 156.905 468.385C156.58 468.842 156.427 469.408 156.268 469.955C158.009 473.833 159.602 477.715 161.343 481.592C161.424 481.738 161.468 481.902 161.469 482.07C161.434 482.243 161.36 482.406 161.252 482.547C160.398 483.919 160.426 485.644 160.519 487.256C160.612 488.868 160.728 490.571 160.007 492.016C159.811 492.413 159.556 492.776 159.37 493.173C158.934 494.071 158.776 496.945 159.031 497.91L190.971 498.825C190.284 496.937 193.345 473.943 193.345 473.943Z" fill="#C9C4C4"/>
<path d="M156.176 470.073C156.02 470.236 155.9 470.428 155.822 470.639C154.534 473.541 153.774 476.649 153.576 479.818C153.579 479.972 153.544 480.125 153.472 480.262C153.402 480.353 153.324 480.438 153.238 480.515C153.164 480.604 153.107 480.706 153.072 480.816C153.037 480.926 153.024 481.042 153.034 481.157C153.044 481.272 153.076 481.384 153.129 481.486C153.182 481.589 153.255 481.68 153.343 481.754C153.358 481.767 153.373 481.778 153.388 481.79C153.651 481.295 154.28 481.133 154.839 481.09C157.517 480.879 160.133 482.124 162.819 482.03C162.629 481.376 162.356 480.746 162.202 480.084C161.519 477.141 163.223 473.938 162.178 471.104C161.969 470.537 161.621 469.979 161.071 469.731C160.843 469.639 160.605 469.576 160.362 469.543C159.683 469.421 158.333 468.897 157.676 469.107C157.434 469.185 157.339 469.413 157.138 469.55C156.833 469.745 156.428 469.817 156.176 470.073Z" fill="#C9C4C4"/>
<path d="M190.862 469.55C190.661 469.413 190.566 469.185 190.324 469.107C189.668 468.897 188.317 469.421 187.638 469.543C187.395 469.576 187.157 469.639 186.929 469.731C186.38 469.979 186.031 470.537 185.822 471.104C184.777 473.938 186.482 477.141 185.798 480.084C185.644 480.746 185.371 481.376 185.182 482.03C187.867 482.124 190.483 480.879 193.161 481.09C193.72 481.133 194.349 481.295 194.612 481.79C194.627 481.778 194.642 481.767 194.657 481.754C194.745 481.68 194.818 481.589 194.871 481.486C194.924 481.384 194.956 481.272 194.966 481.157C194.976 481.042 194.963 480.926 194.928 480.816C194.893 480.706 194.836 480.604 194.762 480.515C194.676 480.438 194.598 480.353 194.528 480.262C194.456 480.125 194.421 479.972 194.424 479.818C194.226 476.649 193.466 473.541 192.178 470.639C192.1 470.428 191.98 470.236 191.824 470.073C191.572 469.817 191.167 469.745 190.862 469.55Z" fill="#C9C4C4"/>
<path d="M174.123 461.433C179.032 461.433 183.012 457.089 183.012 451.73C183.012 446.372 179.032 442.028 174.123 442.028C169.214 442.028 165.234 446.372 165.234 451.73C165.234 457.089 169.214 461.433 174.123 461.433Z" fill="#3F3D56"/>
<path d="M182.242 443.185C180.92 441.037 178.849 439.455 176.43 438.742L175.344 439.534V438.505C174.762 438.416 174.174 438.382 173.587 438.403L172.65 439.251V438.473C171.262 438.646 169.926 439.104 168.724 439.818C167.523 440.533 166.482 441.489 165.669 442.626C163.634 445.56 163.29 449.641 165.292 452.598C165.841 450.909 166.508 449.325 167.057 447.637C167.489 447.696 167.927 447.698 168.359 447.643L169.028 446.083L169.214 447.577C171.286 447.397 174.359 447 176.324 446.637L176.133 445.491L177.275 446.443C177.877 446.305 178.234 446.179 178.205 446.083C179.666 448.438 181.453 449.942 182.914 452.297C183.469 448.977 184.108 446.215 182.242 443.185Z" fill="#1C1B29"/>
<path d="M165.844 454.115C164.422 454.115 163.27 452.869 163.27 451.332V449.941C163.27 448.404 164.422 447.158 165.844 447.158V454.115H165.844Z" fill="#C9C4C4"/>
<path d="M182.272 447.158C183.694 447.158 184.846 448.404 184.846 449.941V451.332C184.846 452.869 183.694 454.115 182.272 454.115V447.158Z" fill="#C9C4C4"/>
<path d="M183.621 450.159H183.213C183.213 444.559 178.999 440.004 173.82 440.004C168.641 440.004 164.427 444.56 164.427 450.159H164.019C164.019 444.316 168.415 439.562 173.82 439.562C179.224 439.562 183.621 444.316 183.621 450.159Z" fill="#C9C4C4"/>
<path d="M135.78 490.44C133.337 492.261 132.645 495.465 132.645 495.465C132.645 495.465 135.913 495.716 138.356 493.895C140.799 492.074 141.491 488.871 141.491 488.871C141.491 488.871 138.223 488.619 135.78 490.44Z" fill="#6C63FF"/>
<path d="M136.798 491.295C135.624 494.106 132.684 495.555 132.684 495.555C132.684 495.555 131.647 492.446 132.821 489.634C133.995 486.823 136.935 485.374 136.935 485.374C136.935 485.374 137.972 488.483 136.798 491.295Z" fill="#6C63FF"/>
<path d="M207.075 483.167C206.815 481.419 206.747 479.648 206.871 477.885L207.075 474.967C205.948 477.209 206.203 480.16 207.075 483.167V483.167Z" fill="#7B61FF"/>
<path d="M207.954 483.656C207.829 482.612 207.796 481.56 207.855 480.511L207.954 478.774C207.411 480.109 207.534 481.865 207.954 483.656Z" fill="#7B61FF"/>
<path d="M211.859 485.803V486.779C211.859 486.857 211.828 486.931 211.773 486.986C211.718 487.041 211.644 487.072 211.566 487.072H211.078C211.065 487.072 211.053 487.075 211.041 487.08C211.029 487.084 211.018 487.092 211.009 487.101C211 487.11 210.993 487.121 210.988 487.132C210.983 487.144 210.98 487.157 210.98 487.17V495.175C210.98 495.253 210.949 495.327 210.894 495.382C210.839 495.437 210.765 495.468 210.688 495.468H204.732C204.655 495.468 204.58 495.437 204.525 495.382C204.47 495.327 204.44 495.253 204.44 495.175V487.17C204.439 487.144 204.429 487.119 204.411 487.101C204.393 487.083 204.368 487.072 204.342 487.072H203.756C203.679 487.072 203.604 487.041 203.549 486.986C203.494 486.932 203.463 486.857 203.463 486.779V485.803C203.463 485.765 203.471 485.727 203.485 485.691C203.5 485.655 203.522 485.623 203.549 485.596C203.576 485.569 203.608 485.547 203.644 485.532C203.68 485.518 203.718 485.51 203.756 485.51H211.566C211.644 485.51 211.718 485.541 211.773 485.596C211.828 485.651 211.859 485.726 211.859 485.803V485.803Z" fill="#F2F2F2"/>
<path d="M210.989 487.277H204.448V487.57H210.989V487.277Z" fill="#E6E6E6"/>
<path d="M210.98 491.587C208.792 492.493 206.579 492.503 204.342 491.587V489.524C206.496 488.801 208.827 488.801 210.98 489.524V491.587Z" fill="#C9C4C4"/>
<path d="M153.507 481.764C153.443 482.225 153.437 482.692 153.488 483.155L153.946 489.729C153.989 490.349 154.031 490.967 154.089 491.585C154.199 492.784 154.363 493.974 154.567 495.163C154.571 495.331 154.643 495.491 154.765 495.607C154.887 495.724 155.051 495.786 155.22 495.782C157.235 496.209 159.317 496.191 161.373 496.075C164.512 495.9 172.541 495.569 173.031 494.932C173.522 494.294 173.236 493.264 172.596 492.748C171.957 492.233 161.361 490.977 161.361 490.977C161.465 490.157 161.777 489.384 162.073 488.605C162.606 487.224 163.103 485.797 163.112 484.317C163.122 482.837 162.564 481.281 161.352 480.433C160.355 479.737 159.071 479.608 157.855 479.636C156.971 479.662 155.443 479.45 154.636 479.796C153.997 480.077 153.626 481.138 153.507 481.764Z" fill="#3F3D56"/>
<path d="M193.364 479.796C192.557 479.45 191.029 479.662 190.145 479.636C188.93 479.608 187.646 479.737 186.648 480.433C185.436 481.281 184.878 482.837 184.888 484.317C184.898 485.797 185.395 487.224 185.927 488.605C186.223 489.384 186.535 490.157 186.639 490.977C186.639 490.977 176.044 492.233 175.404 492.748C174.764 493.264 174.479 494.294 174.969 494.932C175.46 495.569 190.765 496.209 192.78 495.782C192.949 495.786 193.113 495.724 193.235 495.607C193.358 495.491 193.429 495.331 193.433 495.162C193.637 493.974 193.801 492.784 193.911 491.585C193.969 490.967 194.012 490.349 194.054 489.729L194.512 483.155C194.563 482.692 194.557 482.225 194.493 481.764C194.374 481.138 194.003 480.077 193.364 479.796Z" fill="#3F3D56"/>
<path d="M171.697 496.096C173.016 496.096 174.085 495.027 174.085 493.708C174.085 492.389 173.016 491.32 171.697 491.32C170.379 491.32 169.31 492.389 169.31 493.708C169.31 495.027 170.379 496.096 171.697 496.096Z" fill="#FBBEBE"/>
<path d="M176.985 496.096C178.304 496.096 179.373 495.027 179.373 493.708C179.373 492.389 178.304 491.32 176.985 491.32C175.666 491.32 174.597 492.389 174.597 493.708C174.597 495.027 175.666 496.096 176.985 496.096Z" fill="#FBBEBE"/>
<path d="M229 495.075H119V498.455V499.241H125.506H222.496H229V498.455V495.075Z" fill="#3F3D56"/>
<path d="M190.307 495.929H157.502C157.119 495.928 156.752 495.776 156.481 495.505C156.21 495.234 156.058 494.867 156.058 494.484V474.582C156.058 474.199 156.21 473.832 156.481 473.561C156.752 473.29 157.119 473.138 157.502 473.138H190.307C190.69 473.138 191.057 473.29 191.328 473.561C191.599 473.832 191.751 474.199 191.752 474.582V494.484C191.751 494.867 191.599 495.234 191.328 495.505C191.057 495.776 190.69 495.928 190.307 495.929Z" fill="#7B61FF"/>
<g clip-path="url(#clip0_109_242)">
<path d="M173.272 485.908H174.649C175.03 485.908 175.338 485.599 175.338 485.219V483.842C175.338 483.462 175.03 483.153 174.649 483.153H173.272C172.892 483.153 172.584 483.462 172.584 483.842V485.219C172.584 485.599 172.892 485.908 173.272 485.908Z" fill="#7B61FF"/>
<path d="M174.216 483.756H173.705V485.289H174.216V483.756Z" fill="#F3F3F3"/>
<path d="M173.1 483.761V484.272H173.611V483.761H173.1Z" fill="#F3F3F3"/>
<path d="M174.305 483.761V484.272H174.816V483.761H174.305Z" fill="#F3F3F3"/>
<path d="M174.566 484.789C174.425 484.789 174.31 484.903 174.31 485.044C174.31 485.185 174.425 485.3 174.566 485.3C174.707 485.3 174.821 485.185 174.821 485.044C174.821 484.903 174.707 484.789 174.566 484.789Z" fill="#F3F3F3"/>
</g>
<rect x="172.49" y="483.06" width="2.9415" height="2.9415" rx="0.468027" stroke="#F3F3F3" stroke-width="0.187211"/>
<defs>
<clipPath id="clip0_109_242">
<rect x="172.583" y="483.153" width="2.75429" height="2.75429" rx="0.374422" fill="white"/>
</clipPath>
</defs>
</svg>
