<svg width="342" height="569" viewBox="0 0 342 569" fill="none" xmlns="http://www.w3.org/2000/svg">
<path d="M156.234 559.305H153.339L151.962 548.142H156.234V559.305Z" fill="#9F616A"/>
<path d="M193.558 553.82L191.076 555.312L184.147 546.451L187.808 544.251L193.558 553.82Z" fill="#9F616A"/>
<path d="M341.958 170.96C341.958 331.559 173.589 408.404 173.589 408.404C173.589 408.404 3.49221 331.559 0.0384769 170.96C-1.99156 76.5632 76.5798 0 170.998 0C265.417 0 341.958 76.5414 341.958 170.96Z" fill="#6C63FF"/>
<path d="M177.201 558.043H173.651L171.963 544.354H177.201V558.043Z" fill="#FFB7B7"/>
<path d="M190.516 558.043H186.968L185.279 544.354H190.517L190.516 558.043Z" fill="#FFB7B7"/>
<path d="M243.11 363.642L229.795 416.902H117.383L104.068 363.642H243.11Z" fill="white" stroke="#6C63FF" stroke-width="2"/>
<path d="M226.69 512.405H120.487V567.75H226.69V512.405Z" fill="white"/>
<path d="M227.553 568.614H119.624V511.542H227.553V568.614ZM121.351 566.887H225.826V513.269H121.351V566.887Z" fill="#6C63FF"/>
<path d="M195.358 424.418H151.819L146.822 416.566H200.355L195.358 424.418Z" fill="#6C63FF"/>
<path d="M119.192 417.902H117.465V502.518H119.192V417.902Z" fill="white"/>
<path d="M229.712 417.902H227.985V502.518H229.712V417.902Z" fill="white"/>
<path d="M190.898 361.706L189.844 360.339C239.732 321.868 299.2 255.96 299.2 160.451C299.24 127 289.402 94.282 270.921 66.4001C252.439 38.5181 226.137 16.7136 195.312 3.72112L195.985 2.13086C227.123 15.2552 253.692 37.281 272.361 65.4458C291.03 93.6106 300.967 126.661 300.927 160.451C300.927 256.661 241.093 322.998 190.898 361.706Z" fill="white"/>
<path d="M135.638 361.707L134.583 360.339C184.471 321.868 243.94 255.96 243.94 160.451C243.953 127.225 234.234 94.723 215.981 66.9594C197.729 39.1958 171.744 17.387 141.235 4.22681L141.92 2.6416C172.738 15.9353 198.987 37.9654 217.425 66.0107C235.862 94.0561 245.68 126.888 245.667 160.451C245.667 256.662 185.832 322.999 135.638 361.707Z" fill="white"/>
<path d="M206.358 361.707C156.164 322.999 96.3296 256.662 96.3296 160.451C96.3159 126.888 106.134 94.0554 124.572 66.01C143.01 37.9646 169.259 15.9345 200.078 2.64111L200.763 4.22632C170.254 17.3863 144.268 39.195 126.015 66.9587C107.763 94.7224 98.0429 127.225 98.0564 160.451C98.0564 255.96 157.525 321.868 207.413 360.339L206.358 361.707Z" fill="white"/>
<path d="M151.098 361.706C100.904 322.998 41.0695 256.662 41.0695 160.451C41.0131 126.527 51.0205 93.3493 69.8255 65.115C88.6305 36.8807 115.388 14.8589 146.712 1.83594L147.378 3.42957C116.368 16.3216 89.8796 38.1221 71.2635 66.0728C52.6474 94.0234 42.7405 126.868 42.7963 160.451C42.7963 255.96 102.265 321.868 152.153 360.339L151.098 361.706Z" fill="white"/>
<path d="M171.861 0H170.134V362.642H171.861V0Z" fill="white"/>
<path d="M151.543 499.858L119.877 531.523L121.098 532.744L152.764 501.079L151.543 499.858Z" fill="#6C63FF"/>
<path d="M166.936 499.331L119.865 548.837L121.116 550.027L168.188 500.52L166.936 499.331Z" fill="#6C63FF"/>
<path d="M236.619 499.928H107.104V515.47H236.619V499.928Z" fill="white"/>
<path d="M237.482 516.334H106.24V499.065H237.482V516.334ZM107.967 514.607H235.755V500.792H107.967V514.607Z" fill="#6C63FF"/>
<path d="M189.472 476.56C189.2 474.92 188.918 473.247 188.156 471.769C187.654 470.801 186.859 469.878 185.786 469.687C185.575 469.668 185.367 469.62 185.169 469.544C184.855 469.393 182.009 468.359 181.338 467.939C180.762 467.579 178.454 466.68 177.111 466.177C174.006 466.842 169.643 466.562 166.873 466.093C166.873 466.093 165.321 467.032 163.852 467.939C162.384 468.846 158.344 470.874 158.076 470.863C157.567 470.842 157.095 471.168 156.803 471.578C156.512 471.988 156.375 472.495 156.232 472.986C157.793 476.462 159.221 479.942 160.782 483.418C160.855 483.549 160.894 483.696 160.895 483.846C160.864 484.002 160.797 484.148 160.701 484.274C159.935 485.504 159.96 487.051 160.043 488.496C160.127 489.941 160.23 491.468 159.585 492.763C159.409 493.119 159.18 493.445 159.013 493.8C158.622 494.606 158.481 497.182 158.709 498.048L187.343 498.868C186.728 497.175 189.472 476.56 189.472 476.56Z" fill="#C9C4C4"/>
<path d="M156.15 473.092C156.01 473.237 155.903 473.41 155.833 473.599C154.678 476.2 153.996 478.987 153.819 481.828C153.822 481.966 153.79 482.103 153.726 482.226C153.663 482.308 153.593 482.384 153.516 482.453C153.449 482.532 153.399 482.624 153.368 482.722C153.336 482.821 153.325 482.925 153.333 483.028C153.342 483.131 153.371 483.232 153.419 483.324C153.466 483.416 153.531 483.497 153.61 483.564C153.623 483.575 153.637 483.585 153.65 483.596C153.886 483.152 154.45 483.007 154.952 482.969C157.352 482.779 159.697 483.896 162.105 483.811C161.935 483.224 161.691 482.66 161.552 482.066C160.94 479.428 162.468 476.557 161.531 474.016C161.344 473.507 161.031 473.008 160.538 472.785C160.334 472.702 160.121 472.646 159.903 472.617C159.294 472.507 158.083 472.037 157.495 472.225C157.278 472.295 157.192 472.499 157.012 472.623C156.739 472.797 156.376 472.862 156.15 473.092Z" fill="#C9C4C4"/>
<path d="M187.246 472.623C187.066 472.499 186.981 472.295 186.764 472.225C186.175 472.037 184.964 472.507 184.356 472.617C184.138 472.646 183.924 472.702 183.72 472.785C183.228 473.008 182.915 473.507 182.728 474.016C181.791 476.557 183.319 479.428 182.706 482.066C182.568 482.66 182.324 483.224 182.154 483.811C184.561 483.896 186.906 482.779 189.307 482.969C189.808 483.007 190.373 483.152 190.608 483.596C190.622 483.585 190.635 483.575 190.648 483.564C190.727 483.497 190.792 483.416 190.84 483.324C190.888 483.232 190.917 483.131 190.925 483.028C190.934 482.925 190.922 482.821 190.891 482.722C190.86 482.624 190.809 482.532 190.742 482.453C190.666 482.384 190.596 482.308 190.532 482.226C190.468 482.103 190.437 481.966 190.44 481.828C190.262 478.987 189.58 476.2 188.426 473.599C188.356 473.41 188.248 473.237 188.109 473.092C187.882 472.862 187.52 472.797 187.246 472.623Z" fill="#C9C4C4"/>
<path d="M172.24 465.346C176.641 465.346 180.209 461.451 180.209 456.647C180.209 451.843 176.641 447.949 172.24 447.949C167.838 447.949 164.271 451.843 164.271 456.647C164.271 461.451 167.838 465.346 172.24 465.346Z" fill="#3F3D56"/>
<path d="M179.519 448.987C178.333 447.061 176.477 445.642 174.308 445.003L173.334 445.714V444.791C172.813 444.711 172.286 444.68 171.759 444.699L170.919 445.459V444.762C169.675 444.917 168.477 445.327 167.4 445.968C166.323 446.609 165.39 447.466 164.66 448.485C162.836 451.115 162.528 454.774 164.322 457.425C164.815 455.911 165.413 454.491 165.905 452.977C166.292 453.03 166.685 453.032 167.072 452.983L167.672 451.585L167.839 452.924C169.697 452.762 172.452 452.407 174.213 452.081L174.041 451.054L175.066 451.907C175.605 451.783 175.926 451.671 175.899 451.585C177.209 453.696 178.812 455.044 180.121 457.156C180.618 454.179 181.191 451.703 179.519 448.987Z" fill="#1C1B29"/>
<path d="M164.817 458.785C163.543 458.785 162.51 457.668 162.51 456.29V455.043C162.51 453.665 163.543 452.548 164.817 452.548V458.785H164.817Z" fill="#C9C4C4"/>
<path d="M179.546 452.548C180.82 452.548 181.853 453.665 181.853 455.043V456.29C181.853 457.668 180.82 458.785 179.546 458.785V452.548Z" fill="#C9C4C4"/>
<path d="M180.755 455.239H180.389C180.389 450.219 176.611 446.134 171.968 446.134C167.325 446.134 163.547 450.219 163.547 455.239H163.181C163.181 450 167.123 445.738 171.968 445.738C176.813 445.738 180.755 450 180.755 455.239Z" fill="#C9C4C4"/>
<path d="M137.968 494.232C135.298 494.674 133.518 496.058 133.518 496.058C133.518 496.058 136.069 496.724 138.74 496.282C141.411 495.839 143.19 494.455 143.19 494.455C143.19 494.455 140.639 493.789 137.968 494.232Z" fill="#6C63FF"/>
<path d="M138.467 494.802C136.447 495.922 133.515 496.107 133.515 496.107C133.515 496.107 133.858 494.477 135.878 493.358C137.898 492.238 140.83 492.053 140.83 492.053C140.83 492.053 140.487 493.683 138.467 494.802Z" fill="#6C63FF"/>
<path d="M203.986 495.793C205.551 495.547 207.138 495.472 208.72 495.57L211.337 495.731C209.319 494.738 206.675 494.988 203.986 495.793L203.986 495.793Z" fill="#7B61FF"/>
<path d="M210.294 495.697C211.226 495.561 212.168 495.507 213.11 495.536L214.668 495.584C213.46 495.129 211.889 495.28 210.294 495.697Z" fill="#7B61FF"/>
<path d="M203.473 495.472L202.603 495.567C202.533 495.574 202.464 495.554 202.41 495.51C202.356 495.467 202.321 495.404 202.313 495.335L202.265 494.9C202.264 494.888 202.261 494.877 202.255 494.867C202.25 494.857 202.242 494.848 202.233 494.841C202.224 494.834 202.214 494.828 202.203 494.825C202.192 494.822 202.18 494.821 202.169 494.822L195.035 495.604C194.966 495.611 194.896 495.59 194.842 495.547C194.788 495.503 194.753 495.44 194.745 495.371L194.164 490.064C194.156 489.995 194.176 489.925 194.22 489.871C194.264 489.817 194.327 489.782 194.396 489.774L201.53 488.993C201.553 488.99 201.574 488.979 201.589 488.961C201.604 488.943 201.61 488.919 201.608 488.896L201.551 488.374C201.543 488.305 201.563 488.236 201.607 488.182C201.651 488.127 201.714 488.092 201.783 488.085L202.653 487.99C202.687 487.986 202.722 487.989 202.755 487.998C202.788 488.008 202.819 488.024 202.846 488.046C202.873 488.067 202.895 488.094 202.912 488.124C202.929 488.154 202.939 488.188 202.943 488.222L203.705 495.182C203.712 495.251 203.692 495.321 203.649 495.375C203.605 495.429 203.542 495.464 203.473 495.472Z" fill="#F2F2F2"/>
<path d="M198.232 495.253C197.216 493.43 196.995 491.499 197.597 489.456L199.436 489.255C200.287 491.065 200.51 493.1 200.071 495.052L198.232 495.253Z" fill="#C9C4C4"/>
<path d="M153.757 483.573C153.7 483.986 153.694 484.405 153.74 484.819L154.15 490.713C154.189 491.269 154.227 491.823 154.279 492.377C154.377 493.452 154.524 494.519 154.707 495.585C154.711 495.736 154.775 495.879 154.885 495.983C154.995 496.088 155.141 496.144 155.292 496.14C157.099 496.522 158.966 496.507 160.809 496.403C163.623 496.246 170.821 495.949 171.261 495.378C171.7 494.806 171.444 493.882 170.871 493.42C170.297 492.958 160.799 491.832 160.799 491.832C160.891 491.097 161.171 490.404 161.437 489.706C161.914 488.467 162.36 487.188 162.368 485.861C162.377 484.535 161.877 483.14 160.79 482.379C159.896 481.755 158.745 481.64 157.655 481.665C156.863 481.688 155.493 481.498 154.769 481.808C154.196 482.06 153.864 483.012 153.757 483.573Z" fill="#3F3D56"/>
<path d="M189.489 481.808C188.765 481.498 187.396 481.688 186.603 481.665C185.514 481.64 184.363 481.755 183.469 482.379C182.382 483.14 181.882 484.535 181.89 485.861C181.899 487.188 182.345 488.467 182.822 489.706C183.087 490.404 183.367 491.097 183.46 491.832C183.46 491.832 173.961 492.958 173.388 493.42C172.814 493.882 172.558 494.806 172.998 495.378C173.438 495.949 187.159 496.522 188.966 496.14C189.117 496.144 189.264 496.088 189.374 495.983C189.483 495.879 189.547 495.736 189.551 495.585C189.734 494.519 189.881 493.452 189.98 492.377C190.032 491.823 190.07 491.269 190.108 490.713L190.519 484.819C190.564 484.405 190.559 483.986 190.501 483.573C190.394 483.012 190.062 482.06 189.489 481.808Z" fill="#3F3D56"/>
<path d="M170.065 496.422C171.247 496.422 172.206 495.463 172.206 494.281C172.206 493.099 171.247 492.14 170.065 492.14C168.883 492.14 167.924 493.099 167.924 494.281C167.924 495.463 168.883 496.422 170.065 496.422Z" fill="#FBBEBE"/>
<path d="M174.805 496.422C175.987 496.422 176.946 495.463 176.946 494.281C176.946 493.099 175.987 492.14 174.805 492.14C173.623 492.14 172.664 493.099 172.664 494.281C172.664 495.463 173.623 496.422 174.805 496.422Z" fill="#FBBEBE"/>
<path d="M221.437 495.506H122.821V498.536V499.241H128.654H215.606H221.437V498.536V495.506Z" fill="#3F3D56"/>
<g style="mix-blend-mode:overlay">
<path d="M152.848 443H190.881L187.879 483.343H156.312L152.848 443Z" fill="white"/>
</g>
<path d="M186.749 496.271H157.339C156.996 496.271 156.666 496.134 156.424 495.891C156.181 495.649 156.044 495.319 156.044 494.976V477.134C156.044 476.791 156.181 476.461 156.424 476.219C156.666 475.976 156.996 475.839 157.339 475.839H186.749C187.092 475.839 187.421 475.976 187.664 476.219C187.907 476.461 188.044 476.791 188.044 477.134V494.976C188.044 495.319 187.907 495.649 187.664 495.891C187.421 496.134 187.092 496.271 186.749 496.271Z" fill="#7B61FF"/>
<g clip-path="url(#clip0_109_301)">
<path d="M171.477 487.287H172.711C173.052 487.287 173.329 487.011 173.329 486.67V485.435C173.329 485.094 173.052 484.818 172.711 484.818H171.477C171.136 484.818 170.859 485.094 170.859 485.435V486.67C170.859 487.011 171.136 487.287 171.477 487.287Z" fill="#7B61FF"/>
<path d="M172.323 485.358H171.865V486.732H172.323V485.358Z" fill="#F3F3F3"/>
<path d="M171.322 485.363V485.821H171.781V485.363H171.322Z" fill="#F3F3F3"/>
<path d="M172.403 485.363V485.821H172.861V485.363H172.403Z" fill="#F3F3F3"/>
<path d="M172.637 486.284C172.51 486.284 172.408 486.387 172.408 486.513C172.408 486.64 172.51 486.742 172.637 486.742C172.763 486.742 172.866 486.64 172.866 486.513C172.866 486.387 172.763 486.284 172.637 486.284Z" fill="#F3F3F3"/>
</g>
<rect x="170.775" y="484.734" width="2.63708" height="2.63708" rx="0.419591" stroke="#F3F3F3" stroke-width="0.167836"/>
<defs>
<clipPath id="clip0_109_301">
<rect x="170.859" y="484.818" width="2.46924" height="2.46924" rx="0.335672" fill="white"/>
</clipPath>
</defs>
</svg>
