<svg width="641" height="366" viewBox="0 0 641 366" fill="none" xmlns="http://www.w3.org/2000/svg">
<path d="M432.849 217.951C431.077 207.295 429.25 196.435 424.298 186.835C421.043 180.547 415.876 174.555 408.911 173.312C407.539 173.19 406.191 172.878 404.905 172.385C402.864 171.402 384.38 164.688 380.022 161.961C376.279 159.62 361.294 153.786 352.574 150.516C332.41 154.837 304.07 153.019 286.086 149.971C286.086 149.971 276.001 156.072 266.466 161.961C256.932 167.85 230.696 181.019 228.952 180.953C225.65 180.814 222.581 182.929 220.688 185.591C218.796 188.253 217.908 191.549 216.979 194.736C227.115 217.31 236.39 239.913 246.528 262.487C247.002 263.337 247.254 264.294 247.261 265.267C247.057 266.278 246.626 267.229 246 268.048C241.028 276.034 241.186 286.078 241.729 295.464C242.273 304.85 242.945 314.764 238.75 323.177C237.609 325.487 236.126 327.601 235.04 329.911C232.499 335.142 231.581 351.873 233.065 357.493L419.024 362.821C415.025 351.83 432.849 217.951 432.849 217.951Z" fill="#C9C4C4"/>
<path d="M216.442 195.423C215.539 196.369 214.838 197.489 214.384 198.716C206.887 215.611 202.459 233.707 201.307 252.156C201.327 253.055 201.12 253.945 200.704 254.744C200.294 255.274 199.838 255.768 199.341 256.218C198.907 256.732 198.579 257.326 198.375 257.967C198.171 258.608 198.096 259.282 198.152 259.952C198.209 260.622 198.398 261.274 198.707 261.872C199.015 262.469 199.439 262.999 199.953 263.433C200.037 263.504 200.124 263.572 200.212 263.638C201.743 260.758 205.406 259.817 208.662 259.567C224.252 258.333 239.481 265.586 255.118 265.039C254.015 261.227 252.428 257.564 251.528 253.706C247.549 236.575 257.474 217.924 251.389 201.425C250.174 198.123 248.143 194.877 244.944 193.43C243.619 192.895 242.233 192.528 240.817 192.337C236.866 191.623 229 188.572 225.18 189.796C223.77 190.251 223.214 191.577 222.045 192.378C220.269 193.512 217.914 193.929 216.442 195.423Z" fill="#C9C4C4"/>
<path d="M418.392 192.378C417.224 191.577 416.668 190.251 415.257 189.796C411.437 188.572 403.572 191.623 399.621 192.337C398.205 192.528 396.818 192.895 395.494 193.43C392.294 194.877 390.263 198.123 389.048 201.425C382.964 217.924 392.888 236.575 388.909 253.706C388.009 257.564 386.422 261.227 385.319 265.039C400.956 265.586 416.185 258.333 431.775 259.567C435.031 259.817 438.695 260.758 440.225 263.638C440.314 263.572 440.4 263.504 440.484 263.433C440.998 262.999 441.422 262.469 441.731 261.872C442.04 261.274 442.228 260.622 442.285 259.952C442.342 259.282 442.266 258.608 442.062 257.967C441.858 257.326 441.53 256.732 441.097 256.218C440.599 255.768 440.143 255.274 439.733 254.743C439.318 253.945 439.11 253.055 439.131 252.156C437.979 233.707 433.55 215.611 426.054 198.716C425.599 197.489 424.898 196.369 423.995 195.423C422.523 193.929 420.168 193.512 418.392 192.378Z" fill="#C9C4C4"/>
<path d="M320.934 145.118C349.516 145.118 372.687 119.827 372.687 88.6283C372.687 57.4297 349.516 32.1382 320.934 32.1382C292.353 32.1382 269.182 57.4297 269.182 88.6283C269.182 119.827 292.353 145.118 320.934 145.118Z" fill="#3F3D56"/>
<path d="M368.208 38.8776C360.507 26.3725 348.452 17.1579 334.365 13.0076L328.041 17.6222V11.6303C324.658 11.1125 321.234 10.913 317.813 11.0345L312.358 15.9708V11.4446C304.28 12.4484 296.498 15.1149 289.503 19.276C282.507 23.4372 276.449 29.0027 271.712 35.6215C259.864 52.7014 257.864 76.4632 269.517 93.6801C272.716 83.8493 276.598 74.6252 279.798 64.7953C282.312 65.138 284.86 65.1504 287.377 64.8321L291.269 55.7509L292.356 64.4478C304.42 63.3971 322.312 61.0894 333.747 58.9753L332.635 52.3032L339.288 57.8473C342.792 57.0409 344.872 56.3091 344.7 55.75C353.205 69.4616 363.614 78.219 372.118 91.9305C375.349 72.5965 379.067 56.5205 368.208 38.8776Z" fill="#1C1B29"/>
<path d="M272.732 102.513C264.456 102.513 257.747 95.2589 257.747 86.3101V78.2085C257.747 69.2597 264.456 62.0054 272.732 62.0054V102.513H272.732Z" fill="#C9C4C4"/>
<path d="M368.382 62.0054C376.659 62.0054 383.368 69.2598 383.368 78.2085V86.3101C383.368 95.2589 376.659 102.513 368.382 102.513V62.0054Z" fill="#C9C4C4"/>
<path d="M376.235 79.4818H373.857C373.857 46.8779 349.325 20.3526 319.17 20.3526C289.016 20.3526 264.484 46.8779 264.484 79.4818H262.106C262.106 45.4602 287.705 17.7817 319.17 17.7817C350.636 17.7818 376.235 45.4603 376.235 79.4818Z" fill="#C9C4C4"/>
<path d="M98.3689 332.709C81.0243 335.585 69.4695 344.573 69.4695 344.573C69.4695 344.573 86.0358 348.899 103.38 346.023C120.725 343.147 132.28 334.159 132.28 334.159C132.28 334.159 115.713 329.833 98.3689 332.709Z" fill="#6C63FF"/>
<path d="M101.608 336.418C88.4894 343.688 69.4474 344.89 69.4474 344.89C69.4474 344.89 71.6755 334.306 84.7944 327.036C97.9133 319.765 116.955 318.563 116.955 318.563C116.955 318.563 114.727 329.148 101.608 336.418Z" fill="#6C63FF"/>
<path d="M527.102 342.85C537.267 341.254 547.577 340.769 557.847 341.403L574.845 342.452C561.738 336.001 544.57 337.626 527.102 342.85L527.102 342.85Z" fill="#7B61FF"/>
<path d="M568.068 342.23C574.121 341.347 580.24 340.997 586.354 341.185L596.478 341.497C588.629 338.542 578.425 339.519 568.068 342.23Z" fill="#7B61FF"/>
<path d="M523.77 340.766L518.12 341.385C517.671 341.432 517.221 341.299 516.869 341.017C516.517 340.734 516.291 340.324 516.239 339.875L515.93 337.05C515.922 336.976 515.899 336.904 515.863 336.838C515.828 336.773 515.779 336.715 515.721 336.668C515.663 336.621 515.596 336.587 515.524 336.566C515.452 336.545 515.377 336.539 515.303 336.547L468.972 341.622C468.523 341.669 468.073 341.537 467.721 341.254C467.369 340.971 467.142 340.561 467.091 340.113L463.316 305.647C463.267 305.197 463.398 304.747 463.681 304.394C463.964 304.042 464.376 303.816 464.825 303.766L511.156 298.691C511.306 298.674 511.443 298.599 511.537 298.482C511.631 298.364 511.675 298.214 511.659 298.064L511.288 294.674C511.239 294.225 511.371 293.774 511.654 293.422C511.937 293.069 512.348 292.843 512.797 292.794L518.447 292.175C518.67 292.15 518.895 292.169 519.111 292.232C519.326 292.295 519.526 292.399 519.701 292.539C519.876 292.679 520.021 292.853 520.129 293.049C520.236 293.246 520.304 293.461 520.328 293.684L525.279 338.885C525.327 339.334 525.195 339.784 524.912 340.137C524.63 340.489 524.219 340.715 523.77 340.766Z" fill="#F2F2F2"/>
<path d="M489.739 339.348C483.137 327.509 481.705 314.967 485.615 301.699L497.557 300.391C503.081 312.147 504.529 325.367 501.681 338.039L489.739 339.348Z" fill="#C9C4C4"/>
<path d="M200.904 263.488C200.533 266.172 200.496 268.892 200.793 271.585L203.458 309.862C203.709 313.469 203.955 317.068 204.294 320.667C204.933 327.651 205.888 334.579 207.074 341.497C207.101 342.479 207.516 343.411 208.229 344.087C208.942 344.764 209.894 345.13 210.876 345.105C222.609 347.587 234.731 347.488 246.704 346.812C264.976 345.792 311.721 343.863 314.577 340.153C317.433 336.443 315.768 330.442 312.045 327.442C308.321 324.442 246.634 317.129 246.634 317.129C247.237 312.352 249.055 307.854 250.78 303.319C253.878 295.275 256.771 286.968 256.827 278.351C256.883 269.735 253.636 260.676 246.578 255.739C240.772 251.687 233.297 250.935 226.221 251.102C221.074 251.25 212.179 250.017 207.477 252.03C203.756 253.668 201.6 259.845 200.904 263.488Z" fill="#3F3D56"/>
<path d="M432.96 252.03C428.258 250.017 419.364 251.25 414.216 251.102C407.141 250.935 399.665 251.687 393.859 255.739C386.801 260.676 383.554 269.735 383.61 278.351C383.666 286.968 386.559 295.275 389.657 303.319C391.382 307.854 393.201 312.352 393.803 317.129C393.803 317.129 332.116 324.442 328.392 327.442C324.669 330.442 323.004 336.443 325.86 340.153C328.716 343.863 417.828 347.587 429.561 345.105C430.543 345.13 431.495 344.764 432.208 344.087C432.921 343.411 433.336 342.479 433.363 341.497C434.549 334.579 435.504 327.651 436.143 320.667C436.482 317.068 436.728 313.469 436.979 309.862L439.644 271.585C439.941 268.892 439.904 266.172 439.533 263.488C438.838 259.845 436.681 253.668 432.96 252.03Z" fill="#3F3D56"/>
<path d="M306.813 346.933C314.491 346.933 320.715 340.709 320.715 333.031C320.715 325.353 314.491 319.128 306.813 319.128C299.135 319.128 292.911 325.353 292.911 333.031C292.911 340.709 299.135 346.933 306.813 346.933Z" fill="#FBBEBE"/>
<path d="M337.596 346.933C345.274 346.933 351.499 340.709 351.499 333.031C351.499 325.353 345.274 319.128 337.596 319.128C329.918 319.128 323.694 325.353 323.694 333.031C323.694 340.709 329.918 346.933 337.596 346.933Z" fill="#FBBEBE"/>
<path d="M640.437 340.985H0V360.666V365.24H37.8811H602.57H640.437V360.666V340.985Z" fill="#3F3D56"/>
<path d="M195 0H442L422.5 262H217.5L195 0Z" fill="#7B61FF" fill-opacity="0.3"/>
<path d="M415.162 345.957H224.167C221.937 345.954 219.799 345.067 218.222 343.491C216.645 341.914 215.758 339.776 215.755 337.546V221.675C215.758 219.445 216.645 217.307 218.222 215.73C219.799 214.154 221.937 213.267 224.167 213.264H415.162C417.392 213.267 419.53 214.154 421.106 215.73C422.683 217.307 423.57 219.445 423.573 221.675V337.546C423.57 339.776 422.683 341.914 421.106 343.491C419.53 345.067 417.392 345.954 415.162 345.957Z" fill="#7B61FF"/>
<g clip-path="url(#clip0_105_1205)">
<path d="M315.98 287.613H323.998C326.212 287.613 328.007 285.818 328.007 283.604V275.586C328.007 273.372 326.212 271.577 323.998 271.577H315.98C313.766 271.577 311.971 273.372 311.971 275.586V283.604C311.971 285.818 313.766 287.613 315.98 287.613Z" fill="#7B61FF"/>
<path d="M321.476 275.084H318.501V284.01H321.476V275.084Z" fill="#F3F3F3"/>
<path d="M314.978 275.116V278.091H317.953V275.116H314.978Z" fill="#F3F3F3"/>
<path d="M321.993 275.116V278.091H324.969V275.116H321.993Z" fill="#F3F3F3"/>
<path d="M323.512 281.098C322.691 281.098 322.025 281.764 322.025 282.586C322.025 283.408 322.691 284.074 323.512 284.074C324.334 284.074 325 283.408 325 282.586C325 281.764 324.334 281.098 323.512 281.098Z" fill="#F3F3F3"/>
</g>
<rect x="311.426" y="271.032" width="17.1259" height="17.1259" rx="2.72493" stroke="#F3F3F3" stroke-width="1.08997"/>
<defs>
<clipPath id="clip0_105_1205">
<rect x="311.971" y="271.577" width="16.0359" height="16.0359" rx="2.17994" fill="white"/>
</clipPath>
</defs>
</svg>
