<svg width="641" height="355" viewBox="0 0 641 355" fill="none" xmlns="http://www.w3.org/2000/svg">
<path d="M432.849 206.951C431.077 196.295 429.25 185.435 424.298 175.835C421.043 169.547 415.876 163.555 408.911 162.312C407.539 162.19 406.191 161.878 404.905 161.385C402.864 160.402 384.38 153.688 380.022 150.961C376.279 148.62 361.294 142.786 352.574 139.516C332.41 143.837 304.07 142.019 286.086 138.971C286.086 138.971 276.001 145.072 266.466 150.961C256.932 156.85 230.696 170.019 228.952 169.953C225.65 169.814 222.581 171.929 220.688 174.591C218.796 177.253 217.908 180.549 216.979 183.736C227.115 206.31 236.39 228.913 246.528 251.487C247.002 252.337 247.254 253.294 247.261 254.267C247.057 255.278 246.626 256.229 246 257.048C241.028 265.034 241.186 275.078 241.729 284.464C242.273 293.85 242.945 303.764 238.75 312.177C237.609 314.487 236.126 316.601 235.04 318.911C232.499 324.142 231.581 340.873 233.065 346.493L419.024 351.821C415.025 340.83 432.849 206.951 432.849 206.951Z" fill="#C9C4C4"/>
<path d="M216.442 184.423C215.539 185.369 214.838 186.489 214.384 187.716C206.887 204.611 202.459 222.707 201.307 241.156C201.327 242.055 201.12 242.945 200.704 243.744C200.294 244.274 199.838 244.768 199.341 245.218C198.907 245.732 198.579 246.326 198.375 246.967C198.171 247.608 198.096 248.282 198.152 248.952C198.209 249.622 198.398 250.274 198.707 250.872C199.015 251.469 199.439 251.999 199.953 252.433C200.037 252.504 200.124 252.572 200.212 252.638C201.743 249.758 205.406 248.817 208.662 248.567C224.252 247.333 239.481 254.586 255.118 254.039C254.015 250.227 252.428 246.564 251.528 242.706C247.549 225.575 257.474 206.924 251.389 190.425C250.174 187.123 248.143 183.877 244.944 182.43C243.619 181.895 242.233 181.528 240.817 181.337C236.866 180.623 229 177.572 225.18 178.796C223.77 179.251 223.214 180.577 222.045 181.378C220.269 182.512 217.914 182.929 216.442 184.423Z" fill="#C9C4C4"/>
<path d="M418.392 181.378C417.224 180.577 416.668 179.251 415.257 178.796C411.437 177.572 403.572 180.623 399.621 181.337C398.205 181.528 396.818 181.895 395.494 182.43C392.294 183.877 390.263 187.123 389.048 190.425C382.964 206.924 392.888 225.575 388.909 242.706C388.009 246.564 386.422 250.227 385.319 254.039C400.956 254.586 416.185 247.333 431.775 248.567C435.031 248.817 438.695 249.758 440.225 252.638C440.314 252.572 440.4 252.504 440.484 252.433C440.998 251.999 441.422 251.469 441.731 250.872C442.04 250.274 442.228 249.622 442.285 248.952C442.342 248.282 442.266 247.608 442.062 246.967C441.858 246.326 441.53 245.732 441.097 245.218C440.599 244.768 440.143 244.274 439.733 243.743C439.318 242.945 439.11 242.055 439.131 241.156C437.979 222.707 433.55 204.611 426.054 187.716C425.599 186.489 424.898 185.369 423.995 184.423C422.523 182.929 420.168 182.512 418.392 181.378Z" fill="#C9C4C4"/>
<path d="M320.934 134.118C349.516 134.118 372.687 108.827 372.687 77.6283C372.687 46.4297 349.516 21.1382 320.934 21.1382C292.353 21.1382 269.182 46.4297 269.182 77.6283C269.182 108.827 292.353 134.118 320.934 134.118Z" fill="#3F3D56"/>
<path d="M368.208 27.8776C360.507 15.3725 348.452 6.15785 334.365 2.00763L328.041 6.62217V0.630321C324.658 0.112499 321.234 -0.0869811 317.813 0.0345046L312.358 4.97079V0.444613C304.28 1.44838 296.498 4.1149 289.503 8.27604C282.507 12.4372 276.449 18.0027 271.712 24.6215C259.864 41.7014 257.864 65.4632 269.517 82.6801C272.716 72.8493 276.598 63.6252 279.798 53.7953C282.312 54.138 284.86 54.1504 287.377 53.8321L291.269 44.7509L292.356 53.4478C304.42 52.3971 322.312 50.0894 333.747 47.9753L332.635 41.3032L339.288 46.8473C342.792 46.0409 344.872 45.3091 344.7 44.75C353.205 58.4616 363.614 67.219 372.118 80.9305C375.349 61.5965 379.067 45.5205 368.208 27.8776Z" fill="#1C1B29"/>
<path d="M272.732 91.5132C264.456 91.5132 257.747 84.2589 257.747 75.3101V67.2085C257.747 58.2597 264.456 51.0054 272.732 51.0054V91.5132H272.732Z" fill="#C9C4C4"/>
<path d="M368.382 51.0054C376.659 51.0054 383.368 58.2598 383.368 67.2085V75.3101C383.368 84.2589 376.659 91.5132 368.382 91.5132V51.0054Z" fill="#C9C4C4"/>
<path d="M376.235 68.4818H373.857C373.857 35.8779 349.325 9.35256 319.17 9.35256C289.016 9.35256 264.484 35.8779 264.484 68.4818H262.106C262.106 34.4602 287.705 6.78174 319.17 6.78174C350.636 6.78175 376.235 34.4603 376.235 68.4818Z" fill="#C9C4C4"/>
<path d="M97.6962 303.001C83.4747 313.602 79.4442 332.255 79.4442 332.255C79.4442 332.255 98.4712 333.72 112.693 323.118C126.914 312.517 130.945 293.864 130.945 293.864C130.945 293.864 111.918 292.4 97.6962 303.001Z" fill="#6C63FF"/>
<path d="M103.62 307.979C96.7854 324.347 79.6673 332.782 79.6673 332.782C79.6673 332.782 73.6309 314.678 80.4659 298.31C87.3009 281.942 104.419 273.507 104.419 273.507C104.419 273.507 110.455 291.61 103.62 307.979Z" fill="#6C63FF"/>
<path d="M512.786 260.659C511.275 250.481 510.876 240.168 511.595 229.903L512.786 212.914C506.226 225.968 507.708 243.148 512.786 260.659V260.659Z" fill="#7B61FF"/>
<path d="M517.901 263.501C517.174 257.428 516.982 251.301 517.328 245.194L517.901 235.082C514.745 242.852 515.458 253.078 517.901 263.501Z" fill="#7B61FF"/>
<path d="M540.64 276.007V281.691C540.637 282.143 540.457 282.575 540.138 282.895C539.818 283.214 539.386 283.394 538.935 283.397H536.093C536.018 283.396 535.944 283.411 535.875 283.439C535.806 283.468 535.743 283.51 535.69 283.562C535.637 283.615 535.595 283.678 535.567 283.747C535.538 283.816 535.524 283.89 535.524 283.965V330.573C535.522 331.025 535.341 331.457 535.022 331.776C534.703 332.096 534.27 332.276 533.819 332.278H499.147C498.695 332.278 498.261 332.098 497.942 331.779C497.622 331.459 497.442 331.025 497.442 330.573V283.965C497.441 283.814 497.381 283.67 497.275 283.564C497.168 283.457 497.024 283.397 496.873 283.397H493.463C493.011 283.396 492.577 283.216 492.258 282.897C491.938 282.577 491.758 282.144 491.758 281.691V276.007C491.758 275.783 491.802 275.562 491.887 275.355C491.973 275.148 492.098 274.959 492.257 274.801C492.415 274.643 492.603 274.517 492.81 274.431C493.017 274.346 493.239 274.302 493.463 274.302H538.935C539.386 274.304 539.819 274.484 540.139 274.803C540.458 275.123 540.638 275.556 540.64 276.007V276.007Z" fill="#F2F2F2"/>
<path d="M535.575 284.59H497.493V286.296H535.575V284.59Z" fill="#E6E6E6"/>
<path d="M535.524 309.681C522.781 314.955 509.899 315.013 496.874 309.681V297.668C509.413 293.457 522.985 293.457 535.524 297.668V309.681Z" fill="#C9C4C4"/>
<path d="M200.904 252.488C200.533 255.172 200.496 257.892 200.793 260.585L203.458 298.862C203.709 302.469 203.955 306.068 204.294 309.667C204.933 316.651 205.888 323.579 207.074 330.497C207.101 331.479 207.516 332.411 208.229 333.087C208.942 333.764 209.894 334.13 210.876 334.105C222.609 336.587 234.731 336.488 246.704 335.812C264.976 334.792 311.721 332.863 314.577 329.153C317.433 325.443 315.768 319.442 312.045 316.442C308.321 313.442 246.634 306.129 246.634 306.129C247.237 301.352 249.055 296.854 250.78 292.319C253.878 284.275 256.771 275.968 256.827 267.351C256.883 258.735 253.636 249.676 246.578 244.739C240.772 240.687 233.297 239.935 226.221 240.102C221.074 240.25 212.179 239.017 207.477 241.03C203.756 242.668 201.6 248.845 200.904 252.488Z" fill="#3F3D56"/>
<path d="M432.96 241.03C428.258 239.017 419.364 240.25 414.216 240.102C407.141 239.935 399.665 240.687 393.859 244.739C386.801 249.676 383.554 258.735 383.61 267.351C383.666 275.968 386.559 284.275 389.657 292.319C391.382 296.854 393.201 301.352 393.803 306.129C393.803 306.129 332.116 313.442 328.392 316.442C324.669 319.442 323.004 325.443 325.86 329.153C328.716 332.863 417.828 336.587 429.561 334.105C430.543 334.13 431.495 333.764 432.208 333.087C432.921 332.411 433.336 331.479 433.363 330.497C434.549 323.579 435.504 316.651 436.143 309.667C436.482 306.068 436.728 302.469 436.979 298.862L439.644 260.585C439.941 257.892 439.904 255.172 439.533 252.488C438.838 248.845 436.681 242.668 432.96 241.03Z" fill="#3F3D56"/>
<path d="M306.813 335.933C314.491 335.933 320.715 329.709 320.715 322.031C320.715 314.353 314.491 308.128 306.813 308.128C299.135 308.128 292.911 314.353 292.911 322.031C292.911 329.709 299.135 335.933 306.813 335.933Z" fill="#FBBEBE"/>
<path d="M337.596 335.933C345.274 335.933 351.499 329.709 351.499 322.031C351.499 314.353 345.274 308.128 337.596 308.128C329.918 308.128 323.694 314.353 323.694 322.031C323.694 329.709 329.918 335.933 337.596 335.933Z" fill="#FBBEBE"/>
<path d="M640.437 329.985H0V349.666V354.24H37.8811H602.57H640.437V349.666V329.985Z" fill="#3F3D56"/>
<path d="M415.162 334.957H224.167C221.937 334.954 219.799 334.067 218.222 332.491C216.645 330.914 215.758 328.776 215.755 326.546V210.675C215.758 208.445 216.645 206.307 218.222 204.73C219.799 203.154 221.937 202.267 224.167 202.264H415.162C417.392 202.267 419.53 203.154 421.106 204.73C422.683 206.307 423.57 208.445 423.573 210.675V326.546C423.57 328.776 422.683 330.914 421.106 332.491C419.53 334.067 417.392 334.954 415.162 334.957Z" fill="#7B61FF"/>
<g clip-path="url(#clip0_109_37)">
<path d="M315.98 276.613H323.998C326.212 276.613 328.007 274.818 328.007 272.604V264.586C328.007 262.372 326.212 260.577 323.998 260.577H315.98C313.766 260.577 311.971 262.372 311.971 264.586V272.604C311.971 274.818 313.766 276.613 315.98 276.613Z" fill="#7B61FF"/>
<path d="M321.476 264.084H318.501V273.01H321.476V264.084Z" fill="#F3F3F3"/>
<path d="M314.978 264.116V267.091H317.953V264.116H314.978Z" fill="#F3F3F3"/>
<path d="M321.993 264.116V267.091H324.969V264.116H321.993Z" fill="#F3F3F3"/>
<path d="M323.512 270.098C322.691 270.098 322.025 270.764 322.025 271.586C322.025 272.408 322.691 273.074 323.512 273.074C324.334 273.074 325 272.408 325 271.586C325 270.764 324.334 270.098 323.512 270.098Z" fill="#F3F3F3"/>
</g>
<rect x="311.426" y="260.032" width="17.1259" height="17.1259" rx="2.72493" stroke="#F3F3F3" stroke-width="1.08997"/>
<defs>
<clipPath id="clip0_109_37">
<rect x="311.971" y="260.577" width="16.0359" height="16.0359" rx="2.17994" fill="white"/>
</clipPath>
</defs>
</svg>
