<svg width="48" height="48" viewBox="0 0 48 48" fill="none" xmlns="http://www.w3.org/2000/svg">
<g clip-path="url(#clip0_105_533)">
<path d="M24 4.326C30.408 4.326 31.168 4.35 33.7 4.466C40.204 4.762 43.242 7.848 43.538 14.304C43.654 16.834 43.676 17.594 43.676 24.002C43.676 30.412 43.652 31.17 43.538 33.7C43.24 40.15 40.21 43.242 33.7 43.538C31.168 43.654 30.412 43.678 24 43.678C17.592 43.678 16.832 43.654 14.302 43.538C7.782 43.24 4.76 40.14 4.464 33.698C4.348 31.168 4.324 30.41 4.324 24C4.324 17.592 4.35 16.834 4.464 14.302C4.762 7.848 7.792 4.76 14.302 4.464C16.834 4.35 17.592 4.326 24 4.326ZM24 0C17.482 0 16.666 0.028 14.106 0.144C5.39 0.544 0.546 5.38 0.146 14.104C0.028 16.666 0 17.482 0 24C0 30.518 0.028 31.336 0.144 33.896C0.544 42.612 5.38 47.456 14.104 47.856C16.666 47.972 17.482 48 24 48C30.518 48 31.336 47.972 33.896 47.856C42.604 47.456 47.46 42.62 47.854 33.896C47.972 31.336 48 30.518 48 24C48 17.482 47.972 16.666 47.856 14.106C47.464 5.398 42.622 0.546 33.898 0.146C31.336 0.028 30.518 0 24 0ZM24 11.676C22.3816 11.676 20.779 11.9948 19.2838 12.6141C17.7886 13.2334 16.43 14.1412 15.2856 15.2856C14.1412 16.43 13.2334 17.7886 12.6141 19.2838C11.9948 20.779 11.676 22.3816 11.676 24C11.676 25.6184 11.9948 27.221 12.6141 28.7162C13.2334 30.2114 14.1412 31.57 15.2856 32.7144C16.43 33.8588 17.7886 34.7666 19.2838 35.3859C20.779 36.0052 22.3816 36.324 24 36.324C27.2685 36.324 30.4032 35.0256 32.7144 32.7144C35.0256 30.4032 36.324 27.2685 36.324 24C36.324 20.7315 35.0256 17.5968 32.7144 15.2856C30.4032 12.9744 27.2685 11.676 24 11.676ZM24 32C21.8783 32 19.8434 31.1571 18.3431 29.6569C16.8429 28.1566 16 26.1217 16 24C16 21.8783 16.8429 19.8434 18.3431 18.3431C19.8434 16.8429 21.8783 16 24 16C26.1217 16 28.1566 16.8429 29.6569 18.3431C31.1571 19.8434 32 21.8783 32 24C32 26.1217 31.1571 28.1566 29.6569 29.6569C28.1566 31.1571 26.1217 32 24 32ZM36.812 8.31C36.4337 8.31 36.059 8.38452 35.7095 8.5293C35.3599 8.67409 35.0424 8.8863 34.7748 9.15383C34.5073 9.42135 34.2951 9.73895 34.1503 10.0885C34.0055 10.438 33.931 10.8127 33.931 11.191C33.931 11.5693 34.0055 11.944 34.1503 12.2935C34.2951 12.6431 34.5073 12.9606 34.7748 13.2282C35.0424 13.4957 35.3599 13.7079 35.7095 13.8527C36.059 13.9975 36.4337 14.072 36.812 14.072C37.5761 14.072 38.3089 13.7685 38.8492 13.2282C39.3895 12.6879 39.693 11.9551 39.693 11.191C39.693 10.4269 39.3895 9.69412 38.8492 9.15383C38.3089 8.61353 37.5761 8.31 36.812 8.31Z" fill="#6C63FF"/>
</g>
<defs>
<clipPath id="clip0_105_533">
<rect width="48" height="48" fill="white"/>
</clipPath>
</defs>
</svg>
