<svg width="1014" height="503" viewBox="0 0 1014 503" fill="none" xmlns="http://www.w3.org/2000/svg">
<g clip-path="url(#clip0_2_455)">
<g clip-path="url(#clip1_2_455)">
<rect width="1014" height="503" fill="#6C63FF" fill-opacity="0.44"/>
<path d="M434.73 395H434V502.374H434.73V395Z" fill="#F2F2F2"/>
<path d="M461.113 376.202C461.286 413.748 434.87 444.308 434.87 444.308C434.87 444.308 408.174 413.993 408.001 376.447C407.828 338.901 434.243 308.341 434.243 308.341C434.243 308.341 460.94 338.656 461.113 376.202Z" fill="#766EFD"/>
<path d="M399.565 363.13H398.835V502.336H399.565V363.13Z" fill="#F2F2F2"/>
<path d="M432.884 348.427C433.108 397.104 398.861 436.723 398.861 436.723C398.861 436.723 364.251 397.421 364.027 348.745C363.802 300.068 398.049 260.449 398.049 260.449C398.049 260.449 432.659 299.751 432.884 348.427Z" fill="#766EFD"/>
<path d="M227.364 526.555C227.268 526.555 227.175 526.517 227.107 526.449C227.038 526.38 227 526.288 227 526.191V373.364C227 373.268 227.038 373.175 227.107 373.107C227.175 373.038 227.268 373 227.364 373C227.461 373 227.554 373.038 227.622 373.107C227.691 373.175 227.729 373.268 227.729 373.364V526.191C227.729 526.288 227.691 526.38 227.622 526.449C227.554 526.517 227.461 526.555 227.364 526.555Z" fill="#F2F2F2"/>
<path d="M261.085 339.394C261.309 388 227.112 427.562 227.112 427.562C227.112 427.562 192.552 388.317 192.328 339.711C192.104 291.105 226.301 251.544 226.301 251.544C226.301 251.544 260.861 290.788 261.085 339.394Z" fill="#766EFD"/>
<path d="M143.364 519.555C143.268 519.555 143.175 519.517 143.107 519.449C143.038 519.38 143 519.288 143 519.191V366.364C143 366.268 143.038 366.175 143.107 366.107C143.175 366.038 143.268 366 143.364 366C143.461 366 143.554 366.038 143.622 366.107C143.691 366.175 143.729 366.268 143.729 366.364V519.191C143.729 519.288 143.691 519.38 143.622 519.449C143.554 519.517 143.461 519.555 143.364 519.555Z" fill="#F2F2F2"/>
<path d="M183.364 522.555C183.268 522.555 183.175 522.517 183.107 522.449C183.038 522.38 183 522.288 183 522.191V369.364C183 369.268 183.038 369.175 183.107 369.107C183.175 369.038 183.268 369 183.364 369C183.461 369 183.554 369.038 183.622 369.107C183.691 369.175 183.729 369.268 183.729 369.364V522.191C183.729 522.288 183.691 522.38 183.622 522.449C183.554 522.517 183.461 522.555 183.364 522.555Z" fill="#F2F2F2"/>
<path d="M227.277 303.438C227.567 366.453 183.233 417.743 183.233 417.743C183.233 417.743 138.427 366.864 138.137 303.849C137.846 240.833 182.181 189.544 182.181 189.544C182.181 189.544 226.987 240.423 227.277 303.438Z" fill="#766EFD"/>
<path d="M177.085 339.394C177.309 388 143.113 427.562 143.113 427.562C143.113 427.562 108.552 388.317 108.328 339.711C108.104 291.105 142.301 251.544 142.301 251.544C142.301 251.544 176.861 290.788 177.085 339.394Z" fill="#766EFD"/>
<path d="M136.001 314.209C135.997 313.971 136.009 313.735 136.035 313.532C136.061 313.33 136.099 313.173 136.145 313.083C136.19 312.993 136.24 312.976 136.288 313.033C136.335 313.09 136.378 313.218 136.41 313.4C138.05 323.511 139.426 334.574 140.504 346.332C142.207 364.696 143.924 392.926 142.427 423.133C142.42 423.278 142.407 423.414 142.389 423.534C142.371 423.654 142.348 423.756 142.322 423.833C142.296 423.911 142.267 423.963 142.237 423.986C142.207 424.009 142.176 424.003 142.147 423.969C142.117 423.934 142.089 423.871 142.064 423.784C142.04 423.697 142.019 423.587 142.003 423.46C141.987 423.334 141.976 423.193 141.972 423.047C141.967 422.9 141.968 422.751 141.975 422.607C143.442 393.019 141.754 365.3 140.081 347.257C139.021 335.687 137.668 324.802 136.055 314.853C136.023 314.671 136.004 314.446 136.001 314.209V314.209Z" fill="#F2F2F2"/>
<path d="M143.792 353.979C143.752 354.01 143.705 354.028 143.655 354.029C143.605 354.031 143.556 354.017 143.515 353.989C143.474 353.961 143.442 353.921 143.425 353.875C143.408 353.828 143.407 353.777 143.42 353.729C144.248 351.17 145.391 348.724 146.822 346.447C149.047 342.875 152.977 338.143 159.065 335.887C159.094 335.877 159.125 335.872 159.156 335.873C159.186 335.874 159.217 335.881 159.245 335.894C159.273 335.907 159.298 335.925 159.319 335.948C159.34 335.971 159.357 335.997 159.367 336.026C159.378 336.055 159.383 336.086 159.382 336.117C159.381 336.148 159.373 336.178 159.36 336.206C159.348 336.235 159.329 336.26 159.307 336.281C159.284 336.302 159.257 336.318 159.228 336.329C153.265 338.538 149.408 343.186 147.222 346.696C145.813 348.935 144.688 351.342 143.873 353.859C143.859 353.907 143.831 353.949 143.792 353.979V353.979Z" fill="#F2F2F2"/>
<path d="M181.251 259.686C181.237 259.355 181.204 259.025 181.157 258.745C181.11 258.465 181.052 258.248 180.991 258.126C180.93 258.004 180.869 257.983 180.816 258.065C180.764 258.148 180.724 258.33 180.701 258.586C179.553 272.806 178.796 288.334 178.448 304.814C177.882 330.552 178.084 370.059 182.268 412.105C182.288 412.306 182.314 412.495 182.345 412.662C182.375 412.828 182.41 412.968 182.448 413.075C182.485 413.181 182.523 413.252 182.561 413.282C182.599 413.313 182.635 413.302 182.667 413.252C182.7 413.202 182.728 413.112 182.751 412.989C182.773 412.865 182.789 412.71 182.798 412.533C182.807 412.355 182.808 412.158 182.802 411.954C182.796 411.749 182.783 411.54 182.763 411.34C178.665 370.155 178.469 331.365 179.025 306.076C179.366 289.86 180.11 274.581 181.238 260.589C181.262 260.333 181.266 260.017 181.251 259.686V259.686Z" fill="#F2F2F2"/>
<path d="M227.065 314.143C227.055 313.919 227.032 313.695 226.998 313.505C226.964 313.315 226.922 313.168 226.877 313.086C226.833 313.003 226.788 312.989 226.749 313.045C226.71 313.102 226.679 313.226 226.661 313.399C225.763 323.046 225.15 333.58 224.835 344.757C224.327 362.214 224.339 389.005 227.285 417.505C227.299 417.641 227.317 417.769 227.34 417.882C227.362 417.994 227.387 418.09 227.414 418.162C227.441 418.234 227.469 418.281 227.497 418.302C227.525 418.322 227.552 418.315 227.576 418.281C227.6 418.247 227.622 418.186 227.639 418.102C227.656 418.018 227.668 417.913 227.675 417.793C227.682 417.672 227.684 417.539 227.68 417.4C227.677 417.261 227.667 417.12 227.653 416.984C224.768 389.068 224.758 362.763 225.258 345.611C225.566 334.613 226.169 324.248 227.052 314.755C227.07 314.582 227.074 314.368 227.065 314.143V314.143Z" fill="#F2F2F2"/>
<path d="M176.145 315.707C176.194 315.747 176.252 315.768 176.311 315.767C176.37 315.766 176.428 315.744 176.474 315.702C176.521 315.66 176.555 315.602 176.572 315.536C176.588 315.47 176.587 315.398 176.566 315.333C175.378 311.818 173.824 308.483 171.939 305.403C169.009 300.569 163.957 294.233 156.534 291.499C156.498 291.486 156.461 291.481 156.425 291.485C156.388 291.489 156.352 291.501 156.32 291.521C156.288 291.541 156.259 291.568 156.236 291.601C156.213 291.634 156.195 291.672 156.185 291.713C156.174 291.755 156.171 291.798 156.175 291.841C156.179 291.884 156.19 291.926 156.207 291.964C156.225 292.002 156.249 292.036 156.277 292.064C156.306 292.092 156.339 292.113 156.374 292.126C163.645 294.804 168.604 301.028 171.484 305.777C173.338 308.806 174.868 312.087 176.038 315.545C176.058 315.61 176.096 315.667 176.145 315.707V315.707Z" fill="#F2F2F2"/>
<path d="M221.898 350.575C221.947 350.615 222.005 350.637 222.064 350.637C222.124 350.636 222.181 350.614 222.228 350.573C222.276 350.532 222.31 350.474 222.327 350.408C222.345 350.342 222.343 350.271 222.324 350.205C221.171 346.678 219.651 343.327 217.798 340.228C214.917 335.365 209.93 328.977 202.535 326.168C202.5 326.155 202.463 326.15 202.426 326.153C202.389 326.156 202.354 326.168 202.321 326.188C202.289 326.207 202.26 326.234 202.236 326.267C202.213 326.3 202.195 326.338 202.184 326.379C202.173 326.42 202.169 326.463 202.173 326.506C202.176 326.549 202.187 326.591 202.204 326.63C202.221 326.668 202.244 326.703 202.273 326.731C202.301 326.759 202.334 326.78 202.369 326.794C209.612 329.545 214.508 335.819 217.339 340.598C219.162 343.646 220.659 346.942 221.794 350.411C221.813 350.477 221.85 350.534 221.898 350.575V350.575Z" fill="#F2F2F2"/>
<path d="M182.558 295.417C182.508 295.457 182.445 295.481 182.376 295.487C182.307 295.493 182.237 295.479 182.176 295.449C182.115 295.419 182.065 295.373 182.035 295.318C182.004 295.264 181.994 295.203 182.006 295.145C182.764 292.025 183.976 289.018 185.614 286.191C188.154 281.759 192.88 275.817 200.973 272.68C201.011 272.665 201.053 272.657 201.096 272.656C201.139 272.655 201.182 272.662 201.223 272.675C201.264 272.688 201.302 272.708 201.334 272.734C201.367 272.76 201.394 272.79 201.413 272.824C201.432 272.858 201.444 272.895 201.447 272.932C201.45 272.969 201.444 273.005 201.431 273.04C201.417 273.074 201.396 273.106 201.367 273.133C201.339 273.159 201.305 273.181 201.266 273.196C193.34 276.269 188.701 282.105 186.206 286.46C184.593 289.24 183.4 292.198 182.652 295.267C182.641 295.326 182.607 295.378 182.558 295.417V295.417Z" fill="#F2F2F2"/>
<path d="M226.931 363.764C226.882 363.803 226.818 363.827 226.749 363.833C226.681 363.839 226.611 363.825 226.55 363.795C226.488 363.765 226.439 363.719 226.408 363.665C226.377 363.61 226.367 363.549 226.379 363.491C227.138 360.371 228.35 357.364 229.988 354.538C232.528 350.105 237.254 344.163 245.346 341.026C245.385 341.011 245.427 341.003 245.47 341.002C245.513 341.001 245.556 341.008 245.597 341.021C245.637 341.035 245.675 341.055 245.708 341.08C245.74 341.106 245.767 341.136 245.786 341.17C245.806 341.204 245.817 341.241 245.82 341.278C245.823 341.315 245.818 341.352 245.804 341.386C245.791 341.421 245.769 341.452 245.741 341.479C245.713 341.506 245.678 341.527 245.64 341.542C237.713 344.615 233.075 350.451 230.579 354.806C228.967 357.586 227.773 360.545 227.026 363.614C227.014 363.672 226.981 363.724 226.931 363.764V363.764Z" fill="#F2F2F2"/>
<path d="M369.037 394.962H368.307V502.336H369.037V394.962Z" fill="#F2F2F2"/>
<path d="M395.113 376.202C395.286 413.748 368.87 444.308 368.87 444.308C368.87 444.308 342.174 413.993 342.001 376.447C341.828 338.901 368.243 308.341 368.243 308.341C368.243 308.341 394.94 338.656 395.113 376.202Z" fill="#766EFD"/>
<path d="M363.376 356.747C363.374 356.564 363.383 356.381 363.403 356.225C363.423 356.069 363.453 355.947 363.488 355.878C363.523 355.808 363.561 355.795 363.598 355.839C363.635 355.883 363.668 355.982 363.692 356.123C364.96 363.933 366.022 372.478 366.855 381.561C368.171 395.746 369.497 417.553 368.34 440.887C368.335 440.998 368.325 441.104 368.311 441.196C368.297 441.289 368.28 441.368 368.26 441.428C368.24 441.488 368.217 441.528 368.194 441.546C368.171 441.564 368.147 441.559 368.124 441.532C368.101 441.505 368.079 441.457 368.06 441.39C368.041 441.322 368.025 441.237 368.013 441.139C368.001 441.042 367.992 440.933 367.989 440.82C367.985 440.707 367.986 440.591 367.992 440.48C369.124 417.624 367.821 396.213 366.528 382.276C365.709 373.338 364.665 364.93 363.418 357.245C363.394 357.104 363.379 356.93 363.376 356.747V356.747Z" fill="#F2F2F2"/>
<path d="M369.395 387.468C369.364 387.492 369.327 387.506 369.289 387.507C369.251 387.508 369.213 387.497 369.181 387.476C369.149 387.455 369.125 387.424 369.112 387.387C369.099 387.351 369.097 387.312 369.108 387.275C369.747 385.298 370.63 383.409 371.736 381.65C373.454 378.89 376.49 375.235 381.193 373.493C381.215 373.485 381.239 373.481 381.263 373.482C381.286 373.483 381.31 373.488 381.332 373.498C381.353 373.508 381.373 373.523 381.389 373.54C381.405 373.558 381.418 373.578 381.426 373.6C381.435 373.623 381.438 373.647 381.437 373.671C381.437 373.694 381.431 373.718 381.421 373.74C381.411 373.761 381.397 373.781 381.379 373.797C381.362 373.813 381.341 373.826 381.319 373.834C376.712 375.541 373.733 379.131 372.045 381.842C370.956 383.572 370.087 385.431 369.457 387.375C369.447 387.412 369.425 387.445 369.395 387.468V387.468Z" fill="#F2F2F2"/>
<path d="M398.331 314.631C398.32 314.375 398.294 314.121 398.258 313.904C398.222 313.687 398.177 313.52 398.129 313.426C398.082 313.331 398.035 313.315 397.995 313.379C397.955 313.443 397.923 313.584 397.905 313.781C397.019 324.765 396.434 336.76 396.165 349.49C395.728 369.372 395.884 399.889 399.116 432.368C399.131 432.523 399.151 432.669 399.175 432.798C399.199 432.926 399.226 433.035 399.255 433.117C399.283 433.199 399.313 433.254 399.342 433.277C399.371 433.301 399.399 433.293 399.425 433.254C399.45 433.215 399.472 433.146 399.489 433.051C399.506 432.955 399.519 432.835 399.526 432.698C399.532 432.561 399.534 432.409 399.529 432.251C399.524 432.093 399.514 431.932 399.498 431.777C396.333 399.963 396.181 370 396.611 350.465C396.875 337.939 397.449 326.136 398.321 315.328C398.339 315.131 398.342 314.887 398.331 314.631V314.631Z" fill="#F2F2F2"/>
<path d="M433.72 356.697C433.712 356.523 433.694 356.351 433.668 356.204C433.642 356.057 433.61 355.944 433.575 355.88C433.54 355.816 433.506 355.805 433.476 355.849C433.446 355.892 433.422 355.988 433.408 356.122C432.714 363.574 432.241 371.71 431.998 380.344C431.605 393.829 431.614 414.524 433.89 436.539C433.9 436.644 433.915 436.743 433.932 436.83C433.949 436.917 433.969 436.991 433.99 437.047C434.01 437.102 434.032 437.139 434.054 437.155C434.075 437.171 434.096 437.165 434.115 437.139C434.133 437.112 434.15 437.065 434.163 437.001C434.176 436.936 434.186 436.855 434.191 436.761C434.197 436.668 434.198 436.565 434.195 436.458C434.192 436.351 434.185 436.242 434.174 436.137C431.946 414.573 431.938 394.253 432.324 381.004C432.562 372.509 433.028 364.502 433.71 357.169C433.724 357.036 433.727 356.87 433.72 356.697V356.697Z" fill="#F2F2F2"/>
<path d="M394.386 357.905C394.424 357.936 394.469 357.952 394.515 357.951C394.56 357.951 394.605 357.933 394.641 357.901C394.677 357.869 394.703 357.824 394.716 357.772C394.729 357.721 394.727 357.666 394.712 357.615C393.794 354.901 392.593 352.324 391.138 349.945C388.874 346.211 384.971 341.317 379.237 339.205C379.21 339.195 379.181 339.191 379.153 339.194C379.125 339.197 379.097 339.206 379.072 339.222C379.047 339.237 379.025 339.258 379.007 339.284C378.989 339.309 378.976 339.339 378.968 339.371C378.96 339.402 378.957 339.436 378.96 339.469C378.963 339.502 378.972 339.535 378.985 339.564C378.999 339.594 379.017 339.62 379.039 339.642C379.061 339.663 379.087 339.679 379.114 339.689C384.731 341.758 388.561 346.565 390.786 350.234C392.218 352.574 393.4 355.109 394.304 357.779C394.319 357.83 394.348 357.874 394.386 357.905V357.905Z" fill="#F2F2F2"/>
<path d="M429.729 384.838C429.766 384.87 429.811 384.887 429.857 384.886C429.903 384.886 429.947 384.869 429.984 384.837C430.02 384.805 430.047 384.761 430.06 384.71C430.074 384.658 430.073 384.603 430.058 384.553C429.167 381.829 427.993 379.24 426.562 376.846C424.336 373.089 420.484 368.155 414.771 365.985C414.744 365.975 414.716 365.971 414.687 365.974C414.659 365.976 414.631 365.985 414.606 366C414.581 366.016 414.559 366.036 414.541 366.062C414.522 366.087 414.509 366.116 414.5 366.148C414.492 366.18 414.489 366.213 414.492 366.247C414.494 366.28 414.502 366.312 414.516 366.342C414.529 366.372 414.547 366.398 414.569 366.42C414.591 366.442 414.616 366.458 414.643 366.468C420.238 368.594 424.02 373.44 426.207 377.132C427.616 379.486 428.771 382.032 429.648 384.712C429.663 384.763 429.691 384.807 429.729 384.838V384.838Z" fill="#F2F2F2"/>
<path d="M399.34 342.232C399.302 342.262 399.252 342.281 399.199 342.285C399.147 342.29 399.092 342.28 399.045 342.256C398.998 342.233 398.959 342.197 398.936 342.155C398.912 342.113 398.904 342.066 398.913 342.021C399.499 339.611 400.436 337.288 401.701 335.105C403.663 331.681 407.314 327.091 413.565 324.668C413.594 324.656 413.627 324.65 413.66 324.649C413.693 324.649 413.727 324.654 413.758 324.664C413.79 324.674 413.819 324.69 413.844 324.71C413.869 324.73 413.89 324.753 413.905 324.779C413.92 324.806 413.928 324.834 413.931 324.862C413.933 324.891 413.929 324.919 413.918 324.946C413.908 324.973 413.891 324.997 413.87 325.018C413.848 325.038 413.821 325.055 413.791 325.067C407.669 327.44 404.086 331.949 402.158 335.313C400.912 337.46 399.99 339.745 399.413 342.116C399.404 342.161 399.378 342.201 399.34 342.232V342.232Z" fill="#F2F2F2"/>
<path d="M433.617 395.026C433.578 395.057 433.529 395.076 433.476 395.08C433.423 395.084 433.369 395.074 433.322 395.051C433.274 395.027 433.236 394.992 433.212 394.95C433.189 394.908 433.181 394.861 433.19 394.816C433.776 392.406 434.712 390.083 435.977 387.9C437.939 384.476 441.59 379.886 447.841 377.462C447.871 377.451 447.903 377.445 447.937 377.444C447.97 377.443 448.003 377.448 448.035 377.459C448.066 377.469 448.096 377.485 448.121 377.504C448.146 377.524 448.166 377.548 448.181 377.574C448.196 377.6 448.205 377.628 448.207 377.657C448.21 377.685 448.206 377.714 448.195 377.741C448.185 377.767 448.168 377.792 448.146 377.812C448.124 377.833 448.098 377.85 448.068 377.861C441.945 380.235 438.362 384.743 436.434 388.107C435.189 390.255 434.267 392.54 433.689 394.91C433.68 394.955 433.655 394.996 433.617 395.026V395.026Z" fill="#F2F2F2"/>
<path d="M714.73 366H714V505H714.73V366Z" fill="#3F3D56"/>
<path d="M748.085 381.394C748.309 430 714.113 469.562 714.113 469.562C714.113 469.562 679.552 430.317 679.328 381.711C679.104 333.105 713.301 293.544 713.301 293.544C713.301 293.544 747.861 332.788 748.085 381.394Z" fill="#F2F2F2"/>
<path d="M300.644 490.284C302.658 497.732 309.559 502.344 309.559 502.344C309.559 502.344 313.194 494.882 311.179 487.434C309.164 479.986 302.263 475.374 302.263 475.374C302.263 475.374 298.629 482.836 300.644 490.284Z" fill="#766EFD"/>
<path d="M303.604 488.683C309.133 494.065 309.808 502.338 309.808 502.338C309.808 502.338 301.52 501.886 295.991 496.504C290.463 491.122 289.788 482.849 289.788 482.849C289.788 482.849 298.076 483.302 303.604 488.683Z" fill="#766EFD"/>
<path d="M584.644 490.284C586.659 497.732 593.56 502.344 593.56 502.344C593.56 502.344 597.194 494.882 595.179 487.434C593.164 479.986 586.263 475.374 586.263 475.374C586.263 475.374 582.629 482.836 584.644 490.284Z" fill="#766EFD"/>
<path d="M587.604 488.683C593.133 494.065 593.808 502.338 593.808 502.338C593.808 502.338 585.52 501.886 579.991 496.504C574.463 491.122 573.788 482.849 573.788 482.849C573.788 482.849 582.076 483.302 587.604 488.683Z" fill="#766EFD"/>
<path d="M76.6438 490.284C78.6585 497.732 85.5595 502.344 85.5595 502.344C85.5595 502.344 89.1939 494.882 87.1791 487.434C85.1644 479.986 78.2634 475.374 78.2634 475.374C78.2634 475.374 74.629 482.836 76.6438 490.284Z" fill="#F2F2F2"/>
<path d="M79.6043 488.683C85.1328 494.065 85.8081 502.338 85.8081 502.338C85.8081 502.338 77.5199 501.886 71.9914 496.504C66.4629 491.122 65.7876 482.849 65.7876 482.849C65.7876 482.849 74.0758 483.302 79.6043 488.683Z" fill="#F2F2F2"/>
<path d="M809 395.574C809 371.093 828.846 313 853.327 313C877.809 313 897.655 371.093 897.655 395.574C897.655 407.331 892.985 418.606 884.672 426.919C876.359 435.232 865.084 439.902 853.327 439.902C841.571 439.902 830.296 435.232 821.983 426.919C813.67 418.606 809 407.331 809 395.574V395.574Z" fill="#766EFD"/>
<path d="M853.327 503.418C853.231 503.418 853.138 503.38 853.07 503.311C853.001 503.243 852.963 503.15 852.963 503.053V350.227C852.963 350.13 853.001 350.038 853.07 349.969C853.138 349.901 853.231 349.863 853.327 349.863C853.424 349.863 853.517 349.901 853.585 349.969C853.654 350.038 853.692 350.13 853.692 350.227V503.053C853.692 503.15 853.654 503.243 853.585 503.311C853.517 503.38 853.424 503.418 853.327 503.418Z" fill="#F2F2F2"/>
<path d="M853.327 379.731C853.28 379.731 853.232 379.722 853.188 379.704C853.144 379.685 853.103 379.658 853.07 379.625L835.525 362.08C835.491 362.046 835.464 362.006 835.445 361.962C835.426 361.917 835.417 361.87 835.417 361.822C835.416 361.774 835.426 361.726 835.444 361.682C835.462 361.637 835.489 361.597 835.523 361.563C835.557 361.529 835.598 361.502 835.642 361.484C835.687 361.465 835.734 361.456 835.782 361.456C835.83 361.456 835.878 361.466 835.922 361.484C835.966 361.503 836.007 361.53 836.04 361.564L853.585 379.109C853.636 379.16 853.671 379.225 853.685 379.296C853.699 379.366 853.692 379.44 853.664 379.506C853.637 379.573 853.59 379.63 853.53 379.67C853.47 379.71 853.4 379.731 853.327 379.731V379.731Z" fill="#F2F2F2"/>
<path d="M853.327 410.105C853.255 410.105 853.185 410.083 853.125 410.043C853.065 410.003 853.018 409.946 852.991 409.88C852.963 409.813 852.956 409.74 852.97 409.669C852.984 409.598 853.019 409.533 853.07 409.482L882.451 380.1C882.485 380.066 882.525 380.039 882.57 380.02C882.614 380.002 882.662 379.992 882.71 379.992C882.758 379.992 882.805 380.001 882.85 380.02C882.894 380.038 882.935 380.065 882.969 380.099C883.003 380.133 883.029 380.173 883.048 380.218C883.066 380.262 883.076 380.31 883.075 380.358C883.075 380.406 883.066 380.453 883.047 380.498C883.028 380.542 883.001 380.582 882.967 380.616L853.585 409.998C853.551 410.032 853.511 410.059 853.467 410.077C853.423 410.095 853.375 410.105 853.327 410.105V410.105Z" fill="#F2F2F2"/>
<path d="M513.203 484.981C510.083 484.981 507.066 483.867 504.695 481.84C503.905 481.163 503.062 479.986 502.191 478.342C501.635 477.283 501.324 476.113 501.28 474.918C501.236 473.723 501.46 472.533 501.937 471.436C501.478 471.903 500.97 472.32 500.421 472.679L500.144 472.864L500.128 472.531C500.118 472.315 500.112 472.1 500.112 471.891C500.112 470.661 501.042 469.413 500.613 468.277C498.805 463.486 493.071 458.724 501.382 451.309C502.151 450.623 501.124 449.252 501.124 448.214C501.124 438.043 512.175 422.786 519.573 429.769C523.891 433.844 532.888 436.74 537.088 442.409L537.144 442.577L536.98 442.643C536.141 442.996 535.257 443.231 534.353 443.342C535.316 443.538 536.299 443.621 537.282 443.587L537.434 443.582L537.471 443.73C537.837 445.197 538.022 446.702 538.021 448.214L538.021 448.377C538.017 449.525 538.256 450.661 538.721 451.711C539.186 452.76 539.867 453.7 540.72 454.469C542.066 455.697 543.143 457.192 543.88 458.859C544.616 460.526 544.998 462.328 545 464.15C545 466.306 543.535 469.137 542.305 471.131C541.994 471.64 541.571 472.07 541.069 472.392C540.567 472.713 539.999 472.917 539.407 472.988C538.847 473.058 538.277 473.005 537.74 472.831C537.202 472.658 536.709 472.368 536.296 471.983C536.878 473.153 537.636 474.226 538.544 475.166L538.712 475.339L538.504 475.46C536.502 476.627 534.227 477.241 531.91 477.241L531.774 477.24C528.257 477.24 524.918 478.603 522.614 480.979C521.391 482.239 519.928 483.242 518.312 483.93C516.696 484.617 514.959 484.974 513.203 484.981V484.981Z" fill="#F2F2F2"/>
<path d="M508.587 505.487C508.53 505.487 508.475 505.466 508.432 505.429C508.39 505.392 508.362 505.341 508.354 505.284C508.344 505.214 507.364 498.149 508.244 488.759C509.056 480.087 511.666 467.596 519.483 457.337C519.501 457.313 519.525 457.292 519.551 457.276C519.578 457.261 519.608 457.25 519.638 457.246C519.669 457.242 519.7 457.244 519.73 457.252C519.76 457.26 519.788 457.273 519.813 457.292C519.838 457.311 519.858 457.334 519.874 457.361C519.889 457.388 519.9 457.418 519.904 457.448C519.908 457.479 519.906 457.51 519.898 457.54C519.89 457.57 519.876 457.598 519.857 457.623C512.108 467.793 509.52 480.192 508.713 488.803C507.838 498.138 508.81 505.148 508.82 505.218C508.825 505.251 508.822 505.286 508.813 505.318C508.803 505.35 508.787 505.38 508.764 505.406C508.742 505.431 508.715 505.451 508.684 505.465C508.654 505.479 508.62 505.487 508.587 505.487V505.487Z" fill="#3F3D56"/>
<path d="M515.724 471.548C515.674 471.548 515.626 471.532 515.585 471.503C515.545 471.474 515.515 471.433 515.5 471.385C515.484 471.338 515.484 471.287 515.5 471.24C515.515 471.193 515.545 471.151 515.585 471.122C517.812 469.615 520.219 468.39 522.748 467.476C526.7 466.029 532.709 464.717 538.896 466.686C538.926 466.696 538.953 466.711 538.977 466.731C539 466.751 539.02 466.775 539.034 466.803C539.048 466.83 539.057 466.86 539.059 466.891C539.062 466.922 539.058 466.953 539.049 466.982C539.04 467.012 539.025 467.039 539.005 467.062C538.985 467.086 538.96 467.106 538.933 467.12C538.905 467.134 538.875 467.143 538.845 467.145C538.814 467.148 538.783 467.144 538.753 467.135C532.693 465.206 526.793 466.496 522.91 467.918C520.421 468.816 518.054 470.02 515.862 471.503C515.822 471.532 515.773 471.548 515.724 471.548V471.548Z" fill="#3F3D56"/>
<path d="M712.222 461.819C712.206 462.084 712.175 462.342 712.133 462.555C712.091 462.768 712.041 462.925 711.989 463.005C711.937 463.084 711.886 463.081 711.843 462.997C711.801 462.912 711.769 462.75 711.753 462.533C710.951 450.558 710.487 437.644 710.373 424.09C710.176 402.914 710.763 370.765 714.681 337.864C714.7 337.708 714.724 337.563 714.751 337.438C714.778 337.313 714.809 337.21 714.841 337.136C714.873 337.062 714.905 337.018 714.937 337.005C714.968 336.993 714.998 337.014 715.025 337.066C715.051 337.117 715.074 337.199 715.091 337.307C715.108 337.415 715.12 337.546 715.125 337.694C715.131 337.841 715.13 338.002 715.123 338.166C715.116 338.331 715.103 338.496 715.084 338.653C711.246 370.88 710.672 402.446 710.866 423.253C710.977 436.588 711.432 449.295 712.22 461.078C712.237 461.294 712.237 461.554 712.222 461.819V461.819Z" fill="#3F3D56"/>
<path d="M689.114 382.052C689.09 382.009 689.08 381.959 689.086 381.91C689.092 381.86 689.114 381.814 689.148 381.778C689.182 381.741 689.226 381.716 689.275 381.707C689.324 381.697 689.374 381.703 689.419 381.724C691.819 382.939 694.059 384.447 696.086 386.214C699.271 388.965 703.336 393.581 704.621 399.945C704.627 399.975 704.627 400.007 704.621 400.037C704.615 400.067 704.603 400.096 704.586 400.122C704.569 400.148 704.547 400.17 704.521 400.187C704.496 400.204 704.467 400.216 704.436 400.222C704.406 400.229 704.375 400.229 704.345 400.223C704.314 400.217 704.285 400.205 704.26 400.188C704.234 400.171 704.212 400.149 704.195 400.123C704.177 400.097 704.165 400.069 704.159 400.038C702.901 393.805 698.907 389.274 695.778 386.57C693.784 384.831 691.581 383.347 689.221 382.151C689.176 382.13 689.139 382.096 689.114 382.052V382.052Z" fill="#3F3D56"/>
<path d="M716.464 386.495C716.426 386.527 716.379 386.547 716.329 386.551C716.28 386.556 716.23 386.544 716.188 386.518C716.145 386.493 716.112 386.454 716.093 386.408C716.073 386.362 716.069 386.312 716.08 386.263C716.779 383.666 717.799 381.166 719.115 378.821C721.159 375.142 724.847 370.22 730.816 367.664C730.844 367.651 730.875 367.645 730.905 367.645C730.936 367.644 730.967 367.65 730.996 367.661C731.024 367.673 731.051 367.69 731.073 367.712C731.095 367.733 731.112 367.759 731.125 367.787C731.137 367.816 731.143 367.846 731.144 367.877C731.144 367.908 731.138 367.939 731.127 367.967C731.115 367.996 731.098 368.022 731.077 368.044C731.055 368.067 731.029 368.084 731.001 368.096C725.155 370.6 721.535 375.435 719.527 379.049C718.231 381.356 717.227 383.816 716.539 386.37C716.527 386.419 716.501 386.462 716.464 386.495V386.495Z" fill="#3F3D56"/>
<path d="M504.788 443.744C504.784 443.694 504.796 443.645 504.823 443.603C504.849 443.56 504.888 443.527 504.934 443.509C504.98 443.49 505.031 443.486 505.079 443.498C505.127 443.51 505.171 443.537 505.203 443.575C506.867 445.688 508.262 448 509.355 450.457C511.083 454.294 512.824 460.194 511.306 466.506C511.298 466.536 511.285 466.564 511.267 466.59C511.249 466.615 511.226 466.636 511.2 466.652C511.173 466.668 511.144 466.679 511.114 466.684C511.083 466.689 511.052 466.688 511.022 466.68C510.991 466.673 510.963 466.66 510.938 466.642C510.913 466.624 510.892 466.601 510.876 466.574C510.86 466.548 510.849 466.518 510.844 466.488C510.839 466.457 510.841 466.426 510.848 466.396C512.335 460.213 510.623 454.42 508.926 450.65C507.851 448.232 506.479 445.958 504.843 443.878C504.811 443.841 504.791 443.793 504.788 443.744V443.744Z" fill="#3F3D56"/>
<path d="M909.164 500.026C910.031 498.422 909.047 496.455 907.918 495.024C906.789 493.593 905.409 492.1 905.438 490.272C905.48 487.65 908.262 486.104 910.486 484.713C912.134 483.682 913.655 482.459 915.016 481.071C915.565 480.513 916.089 479.917 916.409 479.205C916.869 478.181 916.857 477.012 916.827 475.893C916.731 472.151 916.548 468.415 916.279 464.683" stroke="#3F3D56" stroke-width="0.73103" stroke-miterlimit="10"/>
<path d="M920.497 464.485C920.466 463.801 920.263 463.135 919.906 462.55C919.55 461.965 919.052 461.479 918.458 461.137L917.544 462.947L917.571 460.754C916.74 460.508 915.852 460.532 915.036 460.824C914.22 461.116 913.517 461.659 913.03 462.376C912.543 463.093 912.296 463.947 912.326 464.813C912.355 465.679 912.659 466.514 913.194 467.196C913.729 467.878 914.467 468.373 915.301 468.608C916.135 468.844 917.023 468.808 917.835 468.506C918.648 468.204 919.343 467.652 919.822 466.929C920.3 466.206 920.536 465.35 920.495 464.484L920.497 464.485Z" fill="#766EFD"/>
<path d="M913.209 492.153C912.78 492.987 912.078 493.648 911.219 494.025C910.361 494.403 909.399 494.473 908.495 494.225C907.591 493.978 906.799 493.426 906.253 492.664C905.707 491.902 905.439 490.975 905.496 490.04C905.552 489.104 905.928 488.215 906.561 487.524C907.195 486.833 908.046 486.38 908.974 486.242C909.901 486.104 910.848 486.29 911.655 486.767C912.462 487.244 913.08 487.984 913.406 488.863L910.848 490.941L913.657 490.289C913.658 490.937 913.505 491.576 913.209 492.153V492.153Z" fill="#766EFD"/>
<path d="M911.189 484.216C910.189 484.258 909.208 483.932 908.433 483.3C907.657 482.667 907.14 481.772 906.98 480.784C906.821 479.796 907.029 478.783 907.566 477.938C908.103 477.094 908.931 476.475 909.894 476.2L909.872 477.885L910.796 476.058H910.807C911.346 476.029 911.885 476.106 912.393 476.287C912.902 476.467 913.369 476.746 913.769 477.107C914.17 477.469 914.494 477.906 914.724 478.394C914.955 478.882 915.086 479.41 915.112 479.949C915.137 480.488 915.055 481.026 914.871 481.533C914.687 482.04 914.405 482.506 914.041 482.903C913.676 483.301 913.236 483.622 912.747 483.849C912.258 484.076 911.728 484.204 911.189 484.225V484.216Z" fill="#766EFD"/>
<path d="M921.113 477.613C920.481 477.642 919.85 477.525 919.271 477.269C918.692 477.014 918.18 476.627 917.776 476.14C917.372 475.653 917.086 475.079 916.942 474.463C916.797 473.846 916.798 473.205 916.943 472.589C917.089 471.973 917.375 471.399 917.78 470.913C918.185 470.426 918.698 470.041 919.277 469.786C919.857 469.532 920.487 469.415 921.12 469.446C921.752 469.476 922.368 469.653 922.921 469.963L922.19 471.942L923.675 470.516C924.27 471.062 924.69 471.772 924.882 472.556C925.075 473.34 925.03 474.163 924.755 474.922C924.48 475.681 923.987 476.341 923.337 476.82C922.687 477.299 921.91 477.575 921.104 477.613H921.113Z" fill="#766EFD"/>
<path opacity="0.1" d="M919.949 465.575C919.004 465.679 918.087 465.973 917.14 466.032C916.193 466.09 915.153 465.863 914.556 465.118C914.232 464.721 914.071 464.22 913.799 463.787C913.541 463.385 913.187 463.053 912.77 462.819C912.507 463.337 912.357 463.905 912.33 464.486C912.304 465.067 912.401 465.647 912.617 466.187C912.832 466.727 913.161 467.215 913.58 467.618C913.999 468.021 914.499 468.33 915.047 468.525C915.595 468.719 916.178 468.795 916.757 468.746C917.337 468.697 917.899 468.525 918.407 468.242C918.914 467.959 919.356 467.57 919.702 467.103C920.047 466.635 920.289 466.099 920.411 465.531C920.256 465.547 920.102 465.558 919.949 465.575Z" fill="black"/>
<path opacity="0.1" d="M921.113 477.613C920.409 477.645 919.708 477.495 919.078 477.176C918.449 476.858 917.913 476.382 917.521 475.796C917.13 475.209 916.897 474.531 916.845 473.827C916.793 473.124 916.923 472.419 917.224 471.781C917.549 471.999 917.829 472.279 918.046 472.605C918.337 473.044 918.514 473.552 918.856 473.956C919.492 474.703 920.581 474.948 921.568 474.904C922.555 474.861 923.505 474.579 924.492 474.488C924.629 474.477 924.766 474.468 924.905 474.464C924.702 475.33 924.221 476.106 923.537 476.674C922.853 477.243 922.002 477.572 921.113 477.613Z" fill="black"/>
<path opacity="0.1" d="M911.189 484.216C910.492 484.249 909.798 484.102 909.173 483.79C908.548 483.478 908.013 483.011 907.62 482.434C907.227 481.857 906.988 481.189 906.926 480.494C906.864 479.798 906.982 479.098 907.267 478.461C907.605 478.682 907.898 478.964 908.132 479.292C908.45 479.74 908.647 480.256 909.02 480.67C909.709 481.438 910.868 481.708 911.913 481.683C912.926 481.661 913.9 481.412 914.907 481.336C914.659 482.14 914.169 482.849 913.504 483.364C912.838 483.88 912.03 484.177 911.189 484.216V484.216Z" fill="black"/>
<path opacity="0.1" d="M913.209 492.153C912.735 493.093 911.917 493.813 910.926 494.165C909.934 494.517 908.845 494.473 907.885 494.043C906.925 493.612 906.168 492.828 905.772 491.853C905.375 490.879 905.37 489.789 905.756 488.81C906.093 489.031 906.395 489.301 906.653 489.611C907.043 490.084 907.298 490.622 907.75 491.062C908.585 491.883 909.934 492.221 911.135 492.252C911.827 492.259 912.52 492.226 913.209 492.153V492.153Z" fill="black"/>
<path d="M903 498.179C903 498.179 906.226 498.08 907.203 497.387C908.181 496.695 912.167 495.869 912.408 496.978C912.65 498.087 917.257 502.501 913.615 502.53C909.972 502.559 905.151 501.964 904.181 501.371C903.21 500.779 903 498.179 903 498.179Z" fill="#656380"/>
<path opacity="0.2" d="M913.673 502.152C910.031 502.181 905.21 501.583 904.239 500.993C903.508 500.542 903.207 498.928 903.108 498.182H903C903 498.182 903.205 500.785 904.175 501.375C905.146 501.965 909.967 502.563 913.609 502.534C914.66 502.534 915.024 502.152 915.004 501.598C914.857 501.929 914.457 502.137 913.673 502.152Z" fill="black"/>
<path d="M641.677 503.802C642.112 502.032 640.666 500.375 639.213 499.274C637.76 498.173 636.049 497.075 635.618 495.299C634.999 492.75 637.303 490.554 639.106 488.649C640.442 487.236 641.607 485.671 642.575 483.984C642.966 483.307 643.323 482.599 643.454 481.828C643.642 480.722 643.336 479.593 643.026 478.518C641.992 474.921 640.876 471.35 639.677 467.806" stroke="#3F3D56" stroke-width="0.73103" stroke-miterlimit="10"/>
<path d="M643.71 466.554C643.507 465.899 643.143 465.306 642.651 464.829C642.159 464.353 641.555 464.008 640.894 463.826L640.464 465.807L639.94 463.678C639.073 463.649 638.22 463.896 637.503 464.383C636.786 464.871 636.243 465.574 635.952 466.39C635.661 467.207 635.637 468.094 635.883 468.926C636.129 469.757 636.634 470.488 637.323 471.014C638.012 471.54 638.85 471.833 639.717 471.851C640.584 471.869 641.434 471.611 642.144 471.115C642.855 470.618 643.389 469.909 643.67 469.089C643.951 468.269 643.964 467.381 643.708 466.553L643.71 466.554Z" fill="#766EFD"/>
<path d="M643.612 495.165C643.407 496.08 642.893 496.896 642.157 497.477C641.421 498.058 640.508 498.369 639.571 498.356C638.633 498.344 637.728 498.009 637.008 497.409C636.288 496.809 635.796 495.979 635.615 495.059C635.434 494.139 635.575 493.185 636.014 492.356C636.453 491.528 637.164 490.876 638.027 490.509C638.89 490.143 639.853 490.084 640.754 490.343C641.655 490.602 642.439 491.163 642.976 491.932L641.022 494.586L643.577 493.248C643.741 493.875 643.753 494.533 643.612 495.165V495.165Z" fill="#766EFD"/>
<path d="M639.662 487.991C638.705 488.283 637.673 488.214 636.763 487.797C635.853 487.38 635.128 486.643 634.725 485.727C634.322 484.811 634.269 483.779 634.576 482.826C634.884 481.873 635.53 481.066 636.392 480.558L636.795 482.195L637.23 480.193L637.241 480.191C637.755 480.027 638.296 479.967 638.833 480.013C639.371 480.06 639.894 480.212 640.372 480.462C640.85 480.711 641.274 481.053 641.62 481.467C641.965 481.881 642.225 482.36 642.385 482.875C642.545 483.39 642.601 483.932 642.551 484.469C642.501 485.006 642.344 485.527 642.091 486.004C641.839 486.48 641.494 486.902 641.077 487.244C640.661 487.587 640.18 487.844 639.664 488L639.662 487.991Z" fill="#766EFD"/>
<path d="M647.607 479.105C647.002 479.292 646.362 479.337 645.737 479.235C645.113 479.134 644.52 478.888 644.006 478.518C643.493 478.149 643.072 477.665 642.777 477.105C642.482 476.545 642.321 475.924 642.307 475.291C642.293 474.658 642.426 474.031 642.696 473.458C642.966 472.885 643.365 472.383 643.862 471.991C644.359 471.599 644.94 471.328 645.559 471.198C646.179 471.069 646.82 471.085 647.432 471.246L647.223 473.345L648.302 471.592C649.015 471.971 649.6 472.552 649.983 473.262C650.366 473.973 650.531 474.781 650.455 475.584C650.38 476.388 650.068 477.152 649.56 477.778C649.051 478.405 648.369 478.868 647.598 479.107L647.607 479.105Z" fill="#766EFD"/>
<path opacity="0.1" d="M643.453 467.746C642.565 468.084 641.751 468.6 640.849 468.894C639.948 469.189 638.884 469.231 638.118 468.66C637.705 468.357 637.424 467.913 637.051 467.562C636.7 467.238 636.274 467.005 635.812 466.884C635.687 467.451 635.685 468.039 635.805 468.608C635.926 469.177 636.166 469.714 636.511 470.182C636.855 470.651 637.295 471.04 637.802 471.325C638.309 471.61 638.871 471.784 639.45 471.834C640.029 471.885 640.613 471.811 641.161 471.618C641.71 471.425 642.211 471.117 642.631 470.715C643.051 470.314 643.381 469.827 643.598 469.287C643.815 468.748 643.914 468.168 643.889 467.587C643.743 467.642 643.597 467.691 643.453 467.746Z" fill="black"/>
<path opacity="0.1" d="M647.607 479.105C646.933 479.313 646.217 479.344 645.527 479.194C644.838 479.044 644.199 478.719 643.673 478.249C643.147 477.779 642.751 477.182 642.524 476.514C642.296 475.846 642.246 475.131 642.376 474.438C642.746 474.568 643.087 474.768 643.379 475.029C643.771 475.381 644.07 475.828 644.503 476.133C645.306 476.696 646.422 476.66 647.366 476.369C648.31 476.078 649.159 475.567 650.091 475.23C650.221 475.185 650.352 475.142 650.485 475.104C650.506 475.993 650.236 476.865 649.717 477.587C649.197 478.309 648.456 478.842 647.607 479.105Z" fill="black"/>
<path opacity="0.1" d="M639.662 487.991C638.995 488.198 638.286 488.23 637.603 488.086C636.92 487.941 636.285 487.624 635.759 487.164C635.234 486.704 634.834 486.118 634.6 485.46C634.365 484.802 634.303 484.095 634.419 483.407C634.801 483.536 635.155 483.735 635.465 483.994C635.885 484.348 636.206 484.797 636.671 485.105C637.531 485.674 638.72 485.645 639.725 485.357C640.7 485.081 641.58 484.596 642.536 484.268C642.498 485.109 642.202 485.918 641.688 486.584C641.173 487.251 640.466 487.742 639.662 487.991V487.991Z" fill="black"/>
<path opacity="0.1" d="M643.612 495.165C643.39 496.194 642.78 497.097 641.908 497.687C641.037 498.277 639.972 498.508 638.935 498.332C637.897 498.157 636.967 497.589 636.339 496.745C635.71 495.902 635.43 494.848 635.558 493.804C635.94 493.933 636.301 494.118 636.628 494.353C637.124 494.713 637.507 495.169 638.054 495.482C639.069 496.066 640.459 496.054 641.629 495.782C642.302 495.616 642.964 495.41 643.612 495.165V495.165Z" fill="black"/>
<path d="M635.246 503.564C635.246 503.564 638.343 502.658 639.116 501.741C639.888 500.825 643.538 499.023 644.05 500.036C644.563 501.049 650.132 504.163 646.614 505.107C643.096 506.051 638.28 506.687 637.192 506.357C636.104 506.028 635.246 503.564 635.246 503.564Z" fill="#656380"/>
<path opacity="0.2" d="M646.575 504.726C643.057 505.67 638.241 506.304 637.153 505.977C636.332 505.723 635.635 504.237 635.352 503.541L635.247 503.568C635.247 503.568 636.1 506.035 637.187 506.362C638.275 506.69 643.091 506.056 646.609 505.112C647.627 504.848 647.883 504.386 647.724 503.856C647.666 504.212 647.331 504.515 646.575 504.726Z" fill="black"/>
<path d="M919.626 500.544C920.918 499.257 920.543 497.091 919.873 495.395C919.204 493.7 918.313 491.872 918.867 490.131C919.663 487.631 922.772 486.952 925.303 486.261C927.179 485.749 928.987 485.016 930.691 484.078C931.376 483.703 932.05 483.283 932.562 482.693C933.298 481.845 933.622 480.722 933.917 479.642C934.902 476.032 935.804 472.401 936.621 468.749" stroke="#3F3D56" stroke-width="0.73103" stroke-miterlimit="10"/>
<path d="M940.717 469.775C940.885 469.111 940.882 468.415 940.709 467.752C940.536 467.089 940.199 466.48 939.729 465.982L938.333 467.451L938.991 465.359C938.266 464.884 937.408 464.652 936.542 464.696C935.677 464.74 934.847 465.058 934.174 465.604C933.501 466.151 933.019 466.897 932.798 467.735C932.577 468.573 932.627 469.46 932.943 470.267C933.259 471.075 933.823 471.761 934.554 472.227C935.285 472.692 936.145 472.914 937.01 472.859C937.875 472.804 938.7 472.475 939.366 471.921C940.033 471.366 940.505 470.614 940.716 469.773L940.717 469.775Z" fill="#766EFD"/>
<path d="M925.767 494.17C925.116 494.845 924.253 495.276 923.322 495.39C922.392 495.504 921.45 495.294 920.656 494.797C919.861 494.299 919.262 493.543 918.959 492.656C918.655 491.769 918.666 490.804 918.99 489.924C919.313 489.044 919.929 488.302 920.735 487.822C921.541 487.343 922.487 487.155 923.414 487.29C924.342 487.425 925.195 487.875 925.831 488.565C926.466 489.254 926.845 490.141 926.904 491.077L923.855 492.33L926.733 492.514C926.547 493.135 926.216 493.703 925.767 494.17V494.17Z" fill="#766EFD"/>
<path d="M926.12 485.988C925.15 485.74 924.305 485.145 923.744 484.316C923.183 483.487 922.946 482.481 923.078 481.488C923.21 480.496 923.701 479.587 924.459 478.932C925.216 478.278 926.187 477.925 927.188 477.939L926.682 479.546L928.094 478.062L928.104 478.065C928.629 478.193 929.122 478.422 929.557 478.741C929.992 479.06 930.36 479.462 930.639 479.924C930.917 480.386 931.102 480.898 931.182 481.431C931.262 481.965 931.236 482.509 931.105 483.032C930.974 483.555 930.741 484.047 930.418 484.48C930.096 484.912 929.692 485.277 929.228 485.552C928.765 485.828 928.251 486.009 927.717 486.085C927.183 486.162 926.639 486.131 926.117 485.997L926.12 485.988Z" fill="#766EFD"/>
<path d="M937.525 482.524C936.911 482.37 936.341 482.076 935.86 481.664C935.379 481.253 935.001 480.735 934.754 480.152C934.507 479.569 934.399 478.937 934.438 478.305C934.477 477.674 934.663 477.06 934.979 476.512C935.296 475.964 935.736 475.497 936.264 475.148C936.792 474.799 937.394 474.577 938.022 474.5C938.65 474.423 939.288 474.493 939.884 474.705C940.481 474.916 941.02 475.263 941.46 475.719L940.19 477.403L942.023 476.466C942.436 477.16 942.633 477.961 942.592 478.767C942.55 479.573 942.27 480.349 941.788 480.996C941.306 481.644 940.643 482.134 939.883 482.406C939.123 482.677 938.299 482.717 937.516 482.521L937.525 482.524Z" fill="#766EFD"/>
<path opacity="0.1" d="M939.879 470.661C938.944 470.488 937.98 470.506 937.057 470.289C936.134 470.072 935.203 469.555 934.846 468.669C934.65 468.196 934.64 467.67 934.504 467.177C934.373 466.718 934.13 466.297 933.798 465.953C933.396 466.374 933.089 466.875 932.896 467.423C932.704 467.972 932.63 468.555 932.681 469.135C932.732 469.714 932.905 470.276 933.191 470.782C933.476 471.289 933.865 471.729 934.334 472.073C934.803 472.418 935.34 472.658 935.908 472.778C936.477 472.898 937.065 472.896 937.633 472.771C938.201 472.645 938.736 472.401 939.201 472.053C939.667 471.704 940.053 471.261 940.334 470.752C940.18 470.723 940.03 470.689 939.879 470.661Z" fill="black"/>
<path opacity="0.1" d="M937.525 482.524C936.841 482.352 936.213 482.006 935.702 481.52C935.191 481.033 934.815 480.423 934.609 479.749C934.403 479.074 934.376 478.358 934.528 477.669C934.681 476.981 935.009 476.343 935.481 475.819C935.73 476.122 935.917 476.47 936.031 476.845C936.183 477.349 936.206 477.886 936.417 478.372C936.811 479.271 937.784 479.819 938.741 480.061C939.699 480.304 940.69 480.308 941.661 480.505C941.796 480.534 941.93 480.564 942.064 480.601C941.619 481.372 940.936 481.976 940.117 482.323C939.298 482.67 938.388 482.741 937.525 482.524Z" fill="black"/>
<path opacity="0.1" d="M926.12 485.988C925.442 485.818 924.82 485.478 924.311 484.999C923.803 484.52 923.425 483.919 923.215 483.254C923.005 482.588 922.969 481.879 923.11 481.195C923.251 480.511 923.565 479.875 924.022 479.347C924.281 479.656 924.481 480.01 924.61 480.392C924.786 480.913 924.826 481.463 925.064 481.968C925.503 482.901 926.534 483.494 927.543 483.771C928.518 484.041 929.523 484.084 930.509 484.301C930.04 485 929.367 485.537 928.582 485.839C927.796 486.141 926.936 486.193 926.12 485.988V485.988Z" fill="black"/>
<path opacity="0.1" d="M925.767 494.17C925.043 494.933 924.052 495.388 923.001 495.439C921.95 495.49 920.92 495.135 920.125 494.446C919.33 493.757 918.831 492.788 918.732 491.741C918.633 490.693 918.941 489.648 919.593 488.822C919.852 489.131 920.064 489.476 920.222 489.847C920.458 490.413 920.548 491.001 920.854 491.553C921.417 492.579 922.611 493.291 923.752 493.667C924.413 493.874 925.086 494.042 925.767 494.17V494.17Z" fill="black"/>
<path d="M914.255 496.999C914.255 496.999 917.372 497.834 918.508 497.452C919.644 497.071 923.699 497.428 923.61 498.56C923.522 499.692 926.662 505.245 923.166 504.224C919.669 503.203 915.224 501.243 914.466 500.397C913.707 499.55 914.255 496.999 914.255 496.999Z" fill="#656380"/>
<path opacity="0.2" d="M923.331 503.879C919.834 502.857 915.39 500.896 914.631 500.051C914.061 499.408 914.237 497.776 914.357 497.034L914.254 497.003C914.254 497.003 913.7 499.554 914.459 500.399C915.219 501.243 919.663 503.205 923.16 504.226C924.166 504.529 924.624 504.268 924.764 503.732C924.529 504.006 924.086 504.091 923.331 503.879Z" fill="black"/>
<path d="M651.933 501.674C652.859 500.103 651.952 498.101 650.878 496.628C649.804 495.155 648.482 493.61 648.58 491.785C648.722 489.166 651.561 487.727 653.836 486.422C655.523 485.454 657.089 484.29 658.502 482.955C659.071 482.418 659.618 481.843 659.965 481.143C660.464 480.138 660.496 478.969 660.509 477.85C660.555 474.107 660.515 470.366 660.388 466.627" stroke="#3F3D56" stroke-width="0.73103" stroke-miterlimit="10"/>
<path d="M664.61 466.59C664.605 465.905 664.428 465.232 664.094 464.634C663.76 464.035 663.28 463.531 662.7 463.167L661.718 464.94L661.829 462.749C661.007 462.472 660.119 462.463 659.292 462.723C658.466 462.984 657.743 463.5 657.229 464.198C656.715 464.896 656.436 465.739 656.432 466.606C656.429 467.473 656.701 468.319 657.209 469.021C657.718 469.723 658.436 470.245 659.261 470.512C660.086 470.779 660.974 470.777 661.797 470.507C662.621 470.236 663.337 469.71 663.842 469.006C664.348 468.302 664.616 467.455 664.609 466.588L664.61 466.59Z" fill="#766EFD"/>
<path d="M656.274 493.96C655.814 494.777 655.087 495.411 654.215 495.755C653.343 496.099 652.379 496.134 651.484 495.851C650.59 495.569 649.82 494.989 649.304 494.206C648.787 493.424 648.555 492.488 648.647 491.554C648.739 490.621 649.148 489.748 649.808 489.081C650.467 488.415 651.335 487.995 652.267 487.892C653.199 487.79 654.138 488.011 654.926 488.519C655.714 489.026 656.304 489.789 656.596 490.68L653.961 492.659L656.792 492.114C656.769 492.762 656.591 493.395 656.274 493.96V493.96Z" fill="#766EFD"/>
<path d="M654.558 485.952C653.557 485.956 652.589 485.593 651.838 484.931C651.087 484.27 650.605 483.355 650.483 482.362C650.361 481.368 650.608 480.365 651.176 479.541C651.745 478.717 652.596 478.131 653.569 477.893L653.482 479.576L654.476 477.785L654.487 477.785C655.026 477.776 655.562 477.875 656.063 478.074C656.564 478.273 657.021 478.57 657.407 478.947C657.793 479.323 658.101 479.773 658.312 480.269C658.524 480.765 658.635 481.298 658.64 481.837C658.645 482.377 658.543 482.912 658.34 483.411C658.137 483.911 657.837 484.366 657.457 484.749C657.078 485.132 656.626 485.437 656.129 485.645C655.631 485.853 655.097 485.96 654.558 485.961L654.558 485.952Z" fill="#766EFD"/>
<path d="M664.726 479.731C664.093 479.737 663.468 479.595 662.899 479.318C662.33 479.041 661.833 478.635 661.448 478.133C661.062 477.631 660.799 477.046 660.678 476.425C660.557 475.803 660.582 475.162 660.75 474.552C660.919 473.942 661.228 473.38 661.651 472.909C662.074 472.439 662.601 472.073 663.19 471.841C663.778 471.608 664.413 471.516 665.044 471.57C665.674 471.625 666.284 471.825 666.824 472.156L666.018 474.106L667.557 472.738C668.13 473.306 668.523 474.031 668.685 474.821C668.847 475.612 668.772 476.433 668.468 477.181C668.165 477.929 667.646 478.57 666.979 479.024C666.311 479.478 665.524 479.724 664.717 479.731L664.726 479.731Z" fill="#766EFD"/>
<path opacity="0.1" d="M664.021 467.658C663.073 467.726 662.145 467.985 661.197 468.007C660.249 468.03 659.218 467.764 658.649 466.996C658.341 466.587 658.199 466.081 657.944 465.637C657.701 465.226 657.36 464.88 656.953 464.63C656.669 465.138 656.498 465.701 656.449 466.28C656.401 466.859 656.476 467.443 656.671 467.99C656.866 468.538 657.175 469.038 657.579 469.457C657.982 469.876 658.47 470.204 659.01 470.419C659.55 470.634 660.13 470.732 660.711 470.705C661.292 470.678 661.86 470.528 662.378 470.264C662.897 470.001 663.353 469.629 663.716 469.175C664.079 468.721 664.341 468.195 664.485 467.631C664.329 467.642 664.175 467.647 664.021 467.658Z" fill="black"/>
<path opacity="0.1" d="M664.726 479.731C664.021 479.737 663.326 479.56 662.709 479.218C662.093 478.876 661.575 478.38 661.206 477.779C660.837 477.177 660.63 476.491 660.605 475.786C660.58 475.081 660.737 474.382 661.062 473.756C661.379 473.986 661.647 474.277 661.852 474.611C662.126 475.06 662.284 475.575 662.61 475.991C663.217 476.762 664.296 477.049 665.284 477.042C666.272 477.036 667.232 476.791 668.222 476.737C668.359 476.732 668.497 476.728 668.635 476.729C668.399 477.587 667.89 478.344 667.184 478.886C666.479 479.428 665.616 479.724 664.726 479.731Z" fill="black"/>
<path opacity="0.1" d="M654.558 485.952C653.86 485.958 653.172 485.785 652.559 485.449C651.947 485.114 651.43 484.627 651.059 484.036C650.688 483.444 650.475 482.767 650.44 482.07C650.405 481.372 650.549 480.678 650.858 480.052C651.187 480.286 651.469 480.579 651.69 480.915C651.991 481.375 652.169 481.898 652.525 482.326C653.185 483.12 654.332 483.434 655.378 483.448C656.39 483.465 657.373 483.254 658.382 483.215C658.104 484.01 657.588 484.699 656.903 485.189C656.219 485.679 655.4 485.945 654.558 485.952V485.952Z" fill="black"/>
<path opacity="0.1" d="M656.274 493.96C655.765 494.881 654.92 495.57 653.916 495.884C652.912 496.198 651.825 496.112 650.882 495.645C649.94 495.179 649.213 494.366 648.854 493.377C648.494 492.389 648.53 491.299 648.954 490.336C649.282 490.57 649.574 490.851 649.82 491.17C650.191 491.658 650.426 492.205 650.86 492.662C651.664 493.514 652.999 493.903 654.197 493.98C654.889 494.014 655.583 494.007 656.274 493.96V493.96Z" fill="black"/>
<path d="M645.843 499.593C645.843 499.593 649.07 499.617 650.074 498.962C651.077 498.307 655.092 497.633 655.29 498.751C655.489 499.869 659.925 504.454 656.284 504.345C652.643 504.236 647.849 503.457 646.901 502.828C645.954 502.199 645.843 499.593 645.843 499.593Z" fill="#656380"/>
<path opacity="0.2" d="M656.357 503.969C652.716 503.86 647.921 503.079 646.974 502.452C646.261 501.973 646.021 500.349 645.951 499.6L645.843 499.596C645.843 499.596 645.948 502.205 646.896 502.831C647.843 503.458 652.638 504.239 656.279 504.348C657.329 504.389 657.707 504.021 657.708 503.467C657.549 503.792 657.141 503.984 656.357 503.969Z" fill="black"/>
<path d="M33.7831 501.646V337.149" stroke="#3F3D56" stroke-width="2" stroke-miterlimit="10"/>
<path d="M33.7832 344.139C37.6876 344.139 40.8527 340.974 40.8527 337.07C40.8527 333.165 37.6876 330 33.7832 330C29.8788 330 26.7136 333.165 26.7136 337.07C26.7136 340.974 29.8788 344.139 33.7832 344.139Z" fill="#766EFD"/>
<path d="M12.0695 464.783C15.974 464.783 19.1391 461.618 19.1391 457.713C19.1391 453.809 15.974 450.644 12.0695 450.644C8.16514 450.644 5 453.809 5 457.713C5 461.618 8.16514 464.783 12.0695 464.783Z" fill="#766EFD"/>
<path d="M33.7831 373.181C33.7831 373.181 32.7732 351.46 12.0695 353.984Z" fill="#3F3D56"/>
<path d="M33.7831 434.759C33.7831 434.759 32.7732 413.038 12.0695 415.563Z" fill="#3F3D56"/>
<path d="M33.7831 499.702C33.7831 499.702 38.3278 459.733 12.0695 457.713" stroke="#3F3D56" stroke-width="2" stroke-miterlimit="10"/>
<path d="M55.4998 464.783C59.4042 464.783 62.5694 461.618 62.5694 457.713C62.5694 453.809 59.4042 450.644 55.4998 450.644C51.5954 450.644 48.4303 453.809 48.4303 457.713C48.4303 461.618 51.5954 464.783 55.4998 464.783Z" fill="#766EFD"/>
<path d="M33.7862 499.702C33.7862 499.702 29.2415 459.733 55.4998 457.713" stroke="#3F3D56" stroke-width="2" stroke-miterlimit="10"/>
<path d="M55.9304 398.468C59.8349 398.468 63 395.303 63 391.398C63 387.494 59.8349 384.329 55.9304 384.329C52.026 384.329 48.8609 387.494 48.8609 391.398C48.8609 395.303 52.026 398.468 55.9304 398.468Z" fill="#766EFD"/>
<path d="M34.2169 433.387C34.2169 433.387 29.6722 393.418 55.9305 391.398" stroke="#3F3D56" stroke-width="2" stroke-miterlimit="10"/>
<path d="M271.033 502.646V416.733" stroke="#3F3D56" stroke-width="2" stroke-miterlimit="10"/>
<path d="M271.033 420.384C273.072 420.384 274.725 418.731 274.725 416.692C274.725 414.653 273.072 413 271.033 413C268.993 413 267.34 414.653 267.34 416.692C267.34 418.731 268.993 420.384 271.033 420.384Z" fill="#766EFD"/>
<path d="M259.692 483.393C261.731 483.393 263.384 481.74 263.384 479.701C263.384 477.662 261.731 476.009 259.692 476.009C257.653 476.009 256 477.662 256 479.701C256 481.74 257.653 483.393 259.692 483.393Z" fill="#766EFD"/>
<path d="M271.033 435.552C271.033 435.552 270.505 424.208 259.692 425.526Z" fill="#3F3D56"/>
<path d="M271.033 467.713C271.033 467.713 270.505 456.368 259.692 457.687Z" fill="#3F3D56"/>
<path d="M271.033 501.631C271.033 501.631 273.406 480.756 259.692 479.701" stroke="#3F3D56" stroke-width="2" stroke-miterlimit="10"/>
<path d="M282.375 483.393C284.414 483.393 286.067 481.74 286.067 479.701C286.067 477.662 284.414 476.009 282.375 476.009C280.335 476.009 278.682 477.662 278.682 479.701C278.682 481.74 280.335 483.393 282.375 483.393Z" fill="#766EFD"/>
<path d="M271.034 501.631C271.034 501.631 268.661 480.756 282.375 479.701" stroke="#3F3D56" stroke-width="2" stroke-miterlimit="10"/>
<path d="M282.6 448.759C284.639 448.759 286.292 447.106 286.292 445.067C286.292 443.028 284.639 441.374 282.6 441.374C280.56 441.374 278.907 443.028 278.907 445.067C278.907 447.106 280.56 448.759 282.6 448.759Z" fill="#766EFD"/>
<path d="M271.259 466.996C271.259 466.996 268.886 446.122 282.6 445.067" stroke="#3F3D56" stroke-width="2" stroke-miterlimit="10"/>
<path d="M921.5 170C943.315 170 961 152.315 961 130.5C961 108.685 943.315 91 921.5 91C899.685 91 882 108.685 882 130.5C882 152.315 899.685 170 921.5 170Z" fill="#F2F2F2"/>
</g>
<path d="M657.523 208.586L664.411 203.077C659.06 202.487 656.862 205.405 655.962 207.715C651.781 205.979 647.231 208.254 647.231 208.254L661.012 213.257C660.317 211.4 659.107 209.78 657.523 208.586V208.586Z" fill="#3F3D56"/>
<path d="M762.277 264.704L769.165 259.195C763.814 258.605 761.615 261.523 760.715 263.833C756.535 262.097 751.984 264.372 751.984 264.372L765.766 269.375C765.07 267.518 763.86 265.898 762.277 264.704V264.704Z" fill="#3F3D56"/>
<path d="M649.293 312.591L656.181 307.082C650.83 306.492 648.631 309.41 647.731 311.72C643.551 309.984 639 312.259 639 312.259L652.782 317.262C652.086 315.405 650.876 313.785 649.293 312.591Z" fill="#3F3D56"/>
<path d="M262.346 180.312L267.437 173.11C262.132 174.026 260.828 177.439 260.604 179.908C256.106 179.399 252.364 182.846 252.364 182.846L266.993 183.833C265.81 182.241 264.198 181.02 262.346 180.312V180.312Z" fill="#3F3D56"/>
<path d="M378.55 205.196L383.641 197.993C378.336 198.909 377.032 202.323 376.808 204.791C372.31 204.282 368.568 207.729 368.568 207.729L383.196 208.717C382.014 207.125 380.402 205.904 378.55 205.196V205.196Z" fill="#3F3D56"/>
<path d="M283.266 282.523L288.357 275.321C283.052 276.237 281.748 279.65 281.524 282.119C277.026 281.61 273.284 285.057 273.284 285.057L287.913 286.044C286.73 284.453 285.118 283.231 283.266 282.523Z" fill="#3F3D56"/>
</g>
<defs>
<clipPath id="clip0_2_455">
<rect width="1013.95" height="503" fill="white"/>
</clipPath>
<clipPath id="clip1_2_455">
<rect width="1014" height="503" fill="white"/>
</clipPath>
</defs>
</svg>
