<svg width="48" height="48" viewBox="0 0 48 48" fill="none" xmlns="http://www.w3.org/2000/svg">
<g clip-path="url(#clip0_105_531)">
<path d="M40.9687 0H7.03125C3.15454 0 0 3.15454 0 7.03125V40.9688C0 44.8455 3.15454 48 7.03125 48H40.9687C44.8455 48 48 44.8455 48 40.9688V7.03125C48 3.15454 44.8455 0 40.9687 0ZM16.9687 38.0625H11.3437V18.375H16.9687V38.0625ZM16.9687 15.5625H11.3437V9.9375H16.9687V15.5625ZM36.6562 38.0625H31.0312V26.8125C31.0312 25.262 29.7693 24 28.2187 24C26.6682 24 25.4062 25.262 25.4062 26.8125V38.0625H19.7812V18.375H25.4062V19.4352C26.8799 18.9771 27.8372 18.375 29.625 18.375C33.4398 18.379 36.6562 21.8013 36.6562 25.8457V38.0625Z" fill="#6C63FF"/>
</g>
<defs>
<clipPath id="clip0_105_531">
<rect width="48" height="48" fill="white"/>
</clipPath>
</defs>
</svg>
