<svg width="44" height="44" viewBox="0 0 44 44" fill="none" xmlns="http://www.w3.org/2000/svg">
<path d="M31.6401 23.0002C31.4958 22.8808 31.3208 22.8045 31.1352 22.7797C30.9496 22.755 30.7607 22.7828 30.5901 22.8602C29.5327 23.344 28.383 23.5931 27.2201 23.5902C25.069 23.5876 23.0061 22.7346 21.4813 21.2173C19.9564 19.6999 19.0933 17.6413 19.0801 15.4902C19.0847 14.816 19.1686 14.1447 19.3301 13.4902C19.3644 13.3157 19.3516 13.1352 19.2929 12.9674C19.2342 12.7996 19.1319 12.6504 18.9964 12.5353C18.8609 12.4202 18.6971 12.3432 18.522 12.3125C18.3469 12.2817 18.1668 12.2981 18.0001 12.3602C16.4325 13.0651 15.0697 14.1569 14.0399 15.5331C13.0101 16.9094 12.347 18.5248 12.113 20.2276C11.879 21.9305 12.0816 23.6649 12.702 25.2679C13.3224 26.8709 14.34 28.2899 15.6594 29.3916C16.9788 30.4933 18.5566 31.2415 20.2446 31.566C21.9325 31.8904 23.6753 31.7804 25.3091 31.2464C26.9429 30.7123 28.4141 29.7717 29.5845 28.5129C30.755 27.2541 31.5862 25.7184 32.0001 24.0502C32.0506 23.8591 32.0433 23.6575 31.9792 23.4706C31.9151 23.2837 31.7971 23.12 31.6401 23.0002ZM22.1401 29.6902C20.4619 29.6783 18.8283 29.148 17.4631 28.1719C16.0979 27.1957 15.0678 25.8215 14.5138 24.2373C13.9598 22.6531 13.9091 20.9363 14.3685 19.3222C14.8279 17.708 15.775 16.2752 17.0801 15.2202V15.4902C17.0828 18.1786 18.152 20.7562 20.053 22.6573C21.954 24.5583 24.5317 25.6275 27.2201 25.6302C27.926 25.6327 28.6301 25.559 29.3201 25.4102C28.63 26.7157 27.5966 27.808 26.3313 28.5693C25.066 29.3306 23.6168 29.732 22.1401 29.7302V29.6902Z" fill="#E7E7E7"/>
</svg>
