<svg width="44" height="44" viewBox="0 0 44 44" fill="none" xmlns="http://www.w3.org/2000/svg">
<g opacity="0.4">
<g clip-path="url(#clip0_81_714)">
<path d="M25.3333 30.3334V27.1084C25.3646 26.711 25.3109 26.3115 25.1758 25.9365C25.0408 25.5615 24.8274 25.2195 24.55 24.9334C27.1667 24.6417 29.9167 23.65 29.9167 19.1C29.9164 17.9366 29.4689 16.8177 28.6667 15.975C29.0465 14.9571 29.0197 13.832 28.5917 12.8334C28.5917 12.8334 27.6083 12.5417 25.3333 14.0667C23.4233 13.549 21.41 13.549 19.5 14.0667C17.225 12.5417 16.2417 12.8334 16.2417 12.8334C15.8136 13.832 15.7868 14.9571 16.1667 15.975C15.3584 16.8239 14.9104 17.9529 14.9167 19.125C14.9167 23.6417 17.6667 24.6334 20.2833 24.9584C20.0092 25.2417 19.7977 25.5795 19.6627 25.95C19.5278 26.3204 19.4723 26.7151 19.5 27.1084V30.3334M19.5 27.8334C15.3333 29.0834 15.3333 25.75 13.6667 25.3334L19.5 27.8334Z" stroke="#131414" stroke-width="2" stroke-linecap="round" stroke-linejoin="round"/>
</g>
</g>
<defs>
<clipPath id="clip0_81_714">
<rect width="20" height="20" fill="white" transform="translate(12 12)"/>
</clipPath>
</defs>
</svg>
