<svg width="44" height="44" viewBox="0 0 44 44" fill="none" xmlns="http://www.w3.org/2000/svg">
<g opacity="0.4">
<g clip-path="url(#clip0_81_716)">
<path d="M16.1667 16.5834C16.1667 15.8099 16.474 15.068 17.0209 14.521C17.5679 13.974 18.3098 13.6667 19.0833 13.6667H22V19.5001H19.0833C18.3098 19.5001 17.5679 19.1928 17.0209 18.6458C16.474 18.0988 16.1667 17.357 16.1667 16.5834Z" stroke="#131414" stroke-width="2" stroke-linecap="round" stroke-linejoin="round"/>
<path d="M22 13.6667H24.9167C25.2997 13.6667 25.679 13.7422 26.0328 13.8888C26.3867 14.0353 26.7082 14.2502 26.9791 14.521C27.2499 14.7919 27.4647 15.1134 27.6113 15.4673C27.7579 15.8211 27.8333 16.2004 27.8333 16.5834C27.8333 16.9664 27.7579 17.3457 27.6113 17.6996C27.4647 18.0534 27.2499 18.375 26.9791 18.6458C26.7082 18.9166 26.3867 19.1315 26.0328 19.2781C25.679 19.4246 25.2997 19.5001 24.9167 19.5001H22V13.6667Z" stroke="#131414" stroke-width="2" stroke-linecap="round" stroke-linejoin="round"/>
<path d="M22 22.4167C22 22.0336 22.0754 21.6544 22.222 21.3005C22.3686 20.9466 22.5834 20.6251 22.8543 20.3543C23.1251 20.0834 23.4466 19.8686 23.8005 19.722C24.1544 19.5754 24.5336 19.5 24.9167 19.5C25.2997 19.5 25.679 19.5754 26.0328 19.722C26.3867 19.8686 26.7082 20.0834 26.9791 20.3543C27.2499 20.6251 27.4647 20.9466 27.6113 21.3005C27.7579 21.6544 27.8333 22.0336 27.8333 22.4167C27.8333 22.7997 27.7579 23.179 27.6113 23.5328C27.4647 23.8867 27.2499 24.2082 26.9791 24.4791C26.7082 24.7499 26.3867 24.9647 26.0328 25.1113C25.679 25.2579 25.2997 25.3333 24.9167 25.3333C24.5336 25.3333 24.1544 25.2579 23.8005 25.1113C23.4466 24.9647 23.1251 24.7499 22.8543 24.4791C22.5834 24.2082 22.3686 23.8867 22.222 23.5328C22.0754 23.179 22 22.7997 22 22.4167V22.4167Z" stroke="#131414" stroke-width="2" stroke-linecap="round" stroke-linejoin="round"/>
<path d="M16.1667 28.2499C16.1667 27.4764 16.474 26.7345 17.0209 26.1875C17.5679 25.6405 18.3098 25.3333 19.0833 25.3333H22V28.2499C22 29.0235 21.6927 29.7653 21.1457 30.3123C20.5988 30.8593 19.8569 31.1666 19.0833 31.1666C18.3098 31.1666 17.5679 30.8593 17.0209 30.3123C16.474 29.7653 16.1667 29.0235 16.1667 28.2499Z" stroke="#131414" stroke-width="2" stroke-linecap="round" stroke-linejoin="round"/>
<path d="M16.1667 22.4167C16.1667 21.6431 16.474 20.9013 17.0209 20.3543C17.5679 19.8073 18.3098 19.5 19.0833 19.5H22V25.3333H19.0833C18.3098 25.3333 17.5679 25.026 17.0209 24.4791C16.474 23.9321 16.1667 23.1902 16.1667 22.4167Z" stroke="#131414" stroke-width="2" stroke-linecap="round" stroke-linejoin="round"/>
</g>
</g>
<defs>
<clipPath id="clip0_81_716">
<rect width="20" height="20" fill="white" transform="translate(12 12)"/>
</clipPath>
</defs>
</svg>
